/* XPM */
static char *airt2_7pbdp[] = {
/* columns rows colors chars-per-pixel */
"64 64 187 2 ",
"   c None",
".  c #763D35",
"X  c #51433F",
"o  c #65433B",
"O  c #514C49",
"+  c #57504F",
"@  c #5D5654",
"#  c #684B48",
"$  c #675E5A",
"%  c #706060",
"&  c #716E6B",
"*  c #736967",
"=  c #BA1D2A",
"-  c #952A2D",
";  c #BD242D",
":  c #B7242E",
">  c #AF2833",
",  c #BC2433",
"<  c #BC2A31",
"1  c #B72F38",
"2  c #BE2C39",
"3  c #B22536",
"4  c #B7313B",
"5  c #BC333B",
"6  c #B8383D",
"7  c #B33035",
"8  c #DB1D14",
"9  c #DE1A1B",
"0  c #DE151F",
"q  c #E4171D",
"w  c #E9161E",
"e  c #E41C1D",
"r  c #E51C1B",
"t  c #DE221A",
"y  c #E2211C",
"u  c #C71D2D",
"i  c #CE1D2C",
"p  c #D51C23",
"a  c #DD1C24",
"s  c #DA1728",
"d  c #D41D2C",
"f  c #DC1C2B",
"g  c #DA1726",
"h  c #CC1F31",
"j  c #D31C32",
"k  c #DA1C32",
"l  c #EE0E20",
"z  c #E41522",
"x  c #EC1525",
"c  c #E31D24",
"v  c #E91A22",
"b  c #EE1629",
"n  c #E41B2B",
"m  c #EA1B2A",
"M  c #E5162B",
"N  c #F2142A",
"B  c #F01D2D",
"V  c #F01B27",
"C  c #E81C31",
"Z  c #CF2327",
"A  c #C3252E",
"S  c #CC232C",
"D  c #C2292E",
"F  c #C92828",
"G  c #DA2226",
"H  c #D4222C",
"J  c #DD212D",
"K  c #D62223",
"L  c #C42432",
"P  c #CB2433",
"I  c #C32A35",
"U  c #CC2933",
"Y  c #C32C39",
"T  c #CB2A38",
"R  c #D42434",
"E  c #DC2434",
"W  c #D32934",
"Q  c #D22A3D",
"!  c #C1333C",
"~  c #E32224",
"^  c #EA2027",
"/  c #E1212A",
"(  c #E42332",
")  c #BF3340",
"_  c #B83E45",
"`  c #BC3E4B",
"'  c #B63D42",
"]  c #CB3441",
"[  c #C43B43",
"{  c #CA3D43",
"}  c #C43A4A",
"|  c #CC3B4C",
" . c #C53242",
".. c #D63D4A",
"X. c #855C55",
"o. c #BD4246",
"O. c #B4424A",
"+. c #BC424D",
"@. c #B64247",
"#. c #AB4950",
"$. c #BD4E5A",
"%. c #A85C5C",
"&. c #BE535C",
"*. c #B65153",
"=. c #BB615E",
"-. c #BC5F64",
";. c #867B79",
":. c #977E74",
">. c #BD6564",
",. c #A17167",
"<. c #C5424D",
"1. c #CA474D",
"2. c #C34C54",
"3. c #CB4D55",
"4. c #C64957",
"5. c #D54852",
"6. c #C35055",
"7. c #C55659",
"8. c #CF595E",
"9. c #C2585C",
"0. c #D6525C",
"q. c #E14755",
"w. c #CB5E62",
"e. c #D35864",
"r. c #CC6365",
"t. c #C86769",
"y. c #D26264",
"u. c #D46569",
"i. c #C5716F",
"p. c #C46E72",
"a. c #CC6E72",
"s. c #D56D72",
"d. c #D96C74",
"f. c #D96F79",
"g. c #C47874",
"h. c #D37375",
"j. c #D9757B",
"k. c #E37C7F",
"l. c #CE857D",
"z. c #837F80",
"x. c #C87780",
"c. c #C87D81",
"v. c #D67B84",
"b. c #E67981",
"n. c #948886",
"m. c #9C9794",
"M. c #A7938F",
"N. c #AF9E9F",
"B. c #A19E9A",
"V. c #B19590",
"C. c #ACA19F",
"Z. c #A5A4A4",
"A. c #B1A3A2",
"S. c #CD8885",
"D. c #D58485",
"F. c #DD848C",
"G. c #DE8A8A",
"H. c #D8868A",
"J. c #D9918F",
"K. c #DB8790",
"L. c #DC8F93",
"P. c #DD9C9C",
"I. c #D79896",
"U. c #E3848D",
"Y. c #E38E8E",
"T. c #EB8B8F",
"R. c #E48D94",
"E. c #EB8B93",
"W. c #E29393",
"Q. c #E5959B",
"!. c #EC949A",
"~. c #E39A9A",
"^. c #F3999C",
"/. c #F09498",
"(. c #D0A29B",
"). c #E3A19B",
"_. c #EB97A0",
"`. c #F29EA7",
"'. c #DDAFA4",
"]. c #CAB4A9",
"[. c #E2A1A4",
"{. c #E3A9A2",
"}. c #EEAAAA",
"|. c #E9A2A7",
" X c #F4A6A8",
".X c #F0B6AF",
"XX c #F0A9B0",
/* pixels */
"                                                                                                                                ",
"                                                                                                                                ",
"                                                                                                                                ",
"                                                                                                                                ",
"                                                                                                                                ",
"                                                                                                                                ",
"                                                                                                                                ",
"                                                                                                                                ",
"                                                                                                                                ",
"                                                                                                                                ",
"                                                                                                                                ",
"                                                                                                                                ",
"                                                  A.C.                                                                          ",
"                                                  ;.* m.                                                                        ",
"                                                  ;.O & Z.                                                                      ",
"                                                  B.& + z.                                                                      ",
"                                                    m.$ @ n.                                                                    ",
"                                                      n.X % N.                                                                  ",
"                                                      V.# # M.                                                                  ",
"                                      }.~.F.j.j.Y. X  (.X.o :.].        |.!.E./.^. X                                            ",
"                                  }.D.r.2.<.] { 1.8.k.G.%.. ,.'..XI.g.>.9.3.5.5.0.s.R.XX                                        ",
"                                I.h.<.Y L h S W A ; [ 3.@.- *.h.s.7.' 7 < D S U I 4 $.v.|.                                      ",
"                              P.t.6 P E C M n J d d u A L = I Y I I U W H d p f R L 3 +.v.}.                                    ",
"                            ).a.o.D d n b x c c n f f d d H i H H d d J / n a c J E u , 3.U.                                    ",
"                          }.h.! U d n v v v c c c c c a c f f f f f c c c c c v c n f H W 8.).                                  ",
"                          J.6.P J n v e v v c c c c c c c c c c c c c c c c c v c v v c s { l.                                  ",
"                          i.4 R / c v z v v c c c c c c c c c c c c c c c c c c c v v z g < =.{.                                ",
"                        ~.*.: E n c v c v z c c c c c c c c c c c c c c c c c c c e v v f ; O.J.                                ",
"                        D._ L ( z z v v c z c c c c c c c c c c c c c c c c c c c e e ^ n S 6 p.                                ",
"                        a.! R n x z v c c c c c c c c c c c c c c c c c c c c c c e e c n R Y &.                                ",
"                        r.T k M x x z z c c c c c c c c c c c c c c c c c c c c c e e e n E P ` Q.                              ",
"                        r.W n x b b v z c / c c c c c c c c c c c c c c c c c c e r r q c n j } R.                              ",
"                        y.R n b x x m c c c c c c c c c c c c c c c c c c c c c c r r e c n k | R.                              ",
"                        u.R n m x z m m c c c c c c c c c c c c c c c c c c c c c r r v c f k | R.                              ",
"                        s.Q f n m z c c c c c c c c c c c c c c c c c c c c c c c r y c c f j 1.Q.                              ",
"                        b...d g c c 0 c c c c c c c c c c c c c c c c c c c c c c e ~ c g d Q e.                                ",
"                        /.0.L d a a a c c c c c c c c c c c c c c c c c c c c c c q c a f P  .f.                                ",
"                          d.5 U H p a c v q c c c c c c c c c c c c c c c c c c c q a a E I ` R.                                ",
"                          F.2.I F p / c w q v c c c c c c c c c c c c c c c c c c c a J R 5 -.                                  ",
"                            h.5 A Z G c e v v c c c c c c c c c c c c c c c c c c c f J P _ S.                                  ",
"                            W.3.< Z G 9 r v v c c c c c c c c c c c c c c c c c c c f f T w.{.                                  ",
"                              k.{ F K 9 w v v c c c c c c c c c c c c c c c c v c n f R q.T.                                    ",
"                              ^.y.D Z G w w v v v v c c c c c v c c c c c c c v f H U | b.                                      ",
"                                Y.o.D J x l x x v e e e y t t t t e e e e e e c H 2 O.j.`.                                      ",
"                                  t.5 i n m B V v c e e 9 8 8 8 8 e e e e c c f D O.x.|.                                        ",
"                                  W.7.< u E n n n n c c v v v v v v v z c / J d ! a.[.                                          ",
"                                    G.6.1 L h j d f f n m b N N N b m n f d U ] e._.                                            ",
"                                      L.a.&.+.[  .2 I P P d d f f k R U , > +.d.!.                                              ",
"                                          P.H.c.p.-.&.6.2.<.} | } } ` O.#.%.c.[.                                                ",
"                                                        Q.!.E.U.U.F.K.L.I.                                                      ",
"                                                                                                                                ",
"                                                                                                                                ",
"                                                                                                                                ",
"                                                                                                                                ",
"                                                                                                                                ",
"                                                                                                                                ",
"                                                                                                                                ",
"                                                                                                                                ",
"                                                                                                                                ",
"                                                                                                                                ",
"                                                                                                                                ",
"                                                                                                                                ",
"                                                                                                                                ",
"                                                                                                                                "
};
