/* XPM */
static char *a5d5s_6oom6[] = {
/* columns rows colors chars-per-pixel */
"64 64 182 2 ",
"   c None",
".  c #CD3C24",
"X  c #C13D28",
"o  c #C33B25",
"O  c #BC4D3C",
"+  c #C4432F",
"@  c #CA412B",
"#  c #D8422A",
"$  c #D5412A",
"%  c #CD4530",
"&  c #C44833",
"*  c #C64B38",
"=  c #CE4F3B",
"-  c #D54B35",
";  c #DA4B35",
":  c #D74E38",
">  c #DC4F39",
",  c #DD523C",
"<  c #E44C34",
"1  c #E24F39",
"2  c #E4553E",
"3  c #EC553D",
"4  c #F2553C",
"5  c #F5583F",
"6  c #BF5241",
"7  c #CF5644",
"8  c #CB5C4B",
"9  c #C95644",
"0  c #D55743",
"q  c #DC5641",
"w  c #D35846",
"e  c #DC5945",
"r  c #D45D4B",
"t  c #DB5D4A",
"y  c #E35641",
"u  c #EB5740",
"i  c #E45B46",
"p  c #EB5A43",
"a  c #E25D49",
"s  c #EC5E48",
"d  c #F65A42",
"f  c #FB5D46",
"g  c #F45E49",
"h  c #FE5D48",
"j  c #CE6148",
"k  c #D3604D",
"l  c #DE604D",
"z  c #CD6352",
"x  c #D46351",
"c  c #DD6552",
"v  c #D56D5D",
"b  c #DB6A58",
"n  c #C17458",
"m  c #DC705F",
"M  c #E5624E",
"N  c #E5624D",
"B  c #EF604B",
"V  c #EA614C",
"C  c #ED624C",
"Z  c #FD6047",
"A  c #FD6046",
"S  c #FE6047",
"D  c #FC6047",
"F  c #F2614A",
"G  c #F4604A",
"H  c #F2624C",
"J  c #F5624C",
"K  c #F3614A",
"L  c #FB6048",
"P  c #F96049",
"I  c #FD6048",
"U  c #FC6048",
"Y  c #FE6048",
"T  c #FD6048",
"R  c #E16350",
"E  c #E56551",
"W  c #E86652",
"Q  c #E66956",
"!  c #E76A57",
"~  c #E4705D",
"^  c #C47B6F",
"/  c #D17668",
"(  c #DD7B6B",
")  c #D57869",
"_  c #E67966",
"`  c #BC935B",
"'  c #B98F71",
"]  c #C18E4D",
"[  c #C09657",
"{  c #C99E57",
"}  c #D8A644",
"|  c #D2A34E",
" . c #CDA257",
".. c #CFA75E",
"X. c #D9AD5B",
"o. c #D3A657",
"O. c #E3B24C",
"+. c #E3B453",
"@. c #EABB56",
"#. c #EABD5B",
"$. c #C59768",
"%. c #D79A64",
"&. c #CF8274",
"*. c #D6867A",
"=. c #CDA869",
"-. c #DCA26B",
";. c #D1AD67",
":. c #C5A872",
">. c #D3AE75",
",. c #DCB773",
"<. c #E3A262",
"1. c #EDA560",
"2. c #E0B660",
"3. c #E6BC63",
"4. c #EFC25E",
"5. c #F0C25E",
"6. c #BDA38C",
"7. c #C38F85",
"8. c #CF9688",
"9. c #DD9083",
"0. c #D19F92",
"q. c #E49B8B",
"w. c #E99E92",
"e. c #D8AA88",
"r. c #D3B689",
"t. c #DBB68E",
"y. c #CCA494",
"u. c #D6AC9F",
"i. c #DFA59B",
"p. c #CCB19E",
"a. c #E3A296",
"s. c #EFA396",
"d. c #E2A59B",
"f. c #F3A699",
"g. c #F6AC9F",
"h. c #F9AA9D",
"j. c #DAB7AA",
"k. c #DCBFB0",
"l. c #E4B2A2",
"z. c #E4B4A9",
"x. c #E8B8A6",
"c. c #FAB2A4",
"v. c #E8BFB9",
"b. c #E6C78A",
"n. c #E2C387",
"m. c #DECAA8",
"M. c #DAC0B1",
"N. c #E5CEA4",
"B. c #E2CFAB",
"V. c #E8C7B7",
"C. c #E4C5BB",
"Z. c #E8C6B7",
"A. c #FAC6B6",
"S. c #FCCAB9",
"D. c #EED0BD",
"F. c #DECCC9",
"G. c #E7CDC8",
"H. c #E1C8C3",
"J. c #E6D9C7",
"K. c #E8D9C2",
"L. c #E2D5C8",
"P. c #E5DACC",
"I. c #FBD4C2",
"U. c #F6DAC7",
"Y. c #EED9D6",
"T. c #E7DFDD",
"R. c #EDDFDC",
"E. c #ECD5D1",
"W. c #F0DEDC",
"Q. c #F2E4C9",
"!. c #ECE0DE",
"~. c #F4E5D1",
"^. c #FBEFD6",
"/. c #FBE4D1",
"(. c #FBF2DD",
"). c #F3E7E6",
"_. c #F2EBEA",
"`. c #FEF6E3",
"'. c #F3F0EF",
"]. c #F5F1F0",
"[. c #FEFFFE",
"{. c #F8F3F2",
/* pixels */
"                                                                                                                                ",
"                                                                                                                                ",
"                                                                                                                                ",
"                                                                                                                                ",
"                                                          W H P P P C c                                                         ",
"                                                      W J U h h h h h P B                                                       ",
"                                                    H U h h h h h h h h h J !                                                   ",
"                                                  J h h h h h h h h h h h h f E                                                 ",
"                                                K h h h h h h h h h h h h h h f V                                               ",
"                                              H h h h h h h h h h h h h h h h h h V                                             ",
"                                            C h h h h h h h h h h h h h h h h h h h V                                           ",
"                                          E h h h h h h h h h h h h h h h h h h h h h V                                         ",
"                                        c f h h h h h h h h h h h h h h h h h h h h h h M                                       ",
"                                        K h h h h h h h h h h h h h h h h h h h h h h h P E                                     ",
"                                      V h h h h h h h h h h h h h h h h h h h h h h h h h K                                     ",
"                                    c f h h h h h h h h h h h h h h h h h h h h h h h h h h B                                   ",
"                                    B h h h h h h h h h h h h h h h h h h h h h h h h h h h U l                                 ",
"                                  R h h h h h h h h h h h h h h h h h h h h h h h h h h h h h K                                 ",
"                                  g h h h h h h h h h h h h h h h h h h h h h h h h h h h h h U M                               ",
"                                N h h h h h h h h h h h h h h h h h h h h h h h h h h h h h h h H                               ",
"                                g h h h h h h h h h h h h h h h h h h h h h h h h h h f f h h h U M                             ",
"                              t h h h h h h h h h h h h h h h h h h h f f f f f f h f h h h h f h d                             ",
"                              s h h h h h h h h h h f f f h h h h h h h h f h h h h h h h h d f f 4                             ",
"                              d h h h h h h h h h h h h h h h h h h h h h h h h h h h h h f d d 5 4 i                           ",
"                            7 d h h h h h h h h h h f h f f f f f h h h h h h h h h h h d d d 4 4 4 2                           ",
"                            , d h f h h h h h h h h f f f f h h f f h f f f f f f h f f d d 5 4 4 4 3                           ",
"                            2 4 d f d f h h h h h h h h h h h h h h h h f h f f f f d d d 4 4 4 4 4 4 r                         ",
"                            u 4 4 d d d f h h h h h h h h h h h h h h f f f f f d d d d 4 4 4 4 4 4 4 w                         ",
"                            3 4 4 4 4 d d d f f f f f f f f f f f f f f d d d d d d d 4 4 4 4 4 4 4 3 t                         ",
"                            3 4 4 4 4 4 4 d d d d d f f d d d d d d d d d d d d d 4 4 4 4 4 4 4 4 4 q                           ",
"                            3 4 4 4 4 4 4 4 4 4 4 4 5 d 5 5 5 5 5 d d d d 5 4 4 4 4 4 4 4 4 4 4 3 e                             ",
"                            e 3 4 4 4 4 4 4 4 4 4 4 4 4 4 4 4 4 4 4 4 4 4 4 4 4 4 4 4 4 4 4 2 y                                 ",
"                              w 2 4 4 4 4 4 4 4 4 4 4 4 4 4 4 4 4 4 4 4 4 4 4 4 4 4 3 2 , 0                                     ",
"                                  w 2 3 4 4 4 4 4 4 4 4 4 4 4 4 4 4 4 4 2 u 2 2 q 0 8                                           ",
"                                        r 0 q y 2 2 2 2 4 4 4 5 4 4 d d a b                                                     ",
"                                                    8 u d d d d d d d f Z P M                                                   ",
"                                                  t f Z f d d f f f d d f Z Z H t                                               ",
"                                                M P Z Z f h Z Z f Z f f f h Z Z U s k                                           ",
"                                              B U U Z Z h Z Z Z Z Z Z Z Z h Z U U U P a                                         ",
"                                          x H U U U f f U Z Z U Z h Z Z Z f h U U U U U M                                       ",
"                                        l , d U U f d h U h Z U Z f Z Z U f 5 f U U U H                                         ",
"                                      V f 4 , 2 p 4 f P f d U U Z f f U U Z d 4 d d 2 8                                         ",
"                                  M.&.f U U p w O - d f d d U Z Z Z d h U U d - - 2 3 s                                         ",
"                                l.U.u.b H E     ; . % p 4 f f 2 2 p 2 3 p > @ o 9 p h U M                                       ",
"                                a.D.V.7.      V f < . @ ; : + 6 ^ & : : X . # < t   N f ~ 0.y.                                  ",
"                                            t f U P 3 $ + * . *.Y.k = x 2 d f U d     z 8.Z.e.$.    -.                          ",
"                                            p Z U U U d ) b ; v.[.a.p / H U U U f 0     $.p.  ....-.1.%.                        ",
"                                          e d U U U Z H *.H ! ).[.E.C y y U U U Z u   [       6.;.>.e.<.<.                      ",
"                                          u f U U U h _ C.d.*.[.[.{.9.a.( h U U U d j `   L.J.~.B.;.m.t.]                       ",
"                                          3 P U U U d q.[.[.).[.[.[.].[.z.f U U U d e ' P.`.`.`.Q.=. .=.{                       ",
"                                          a K U U U d C.[.[.[.[.[.[.[.[.G.C U U U d , y.`.`.`.`.N.| } O.#.                      ",
"                                              C K h V W.[.[.[.[.[.[.[.[.R.! U U U s n K.`.^.(.(.,.O.@.5.#.                      ",
"                                                v ~ v !.[.[.[.[.[.[.[.[.).m d B c   :.r.r.N.(.Q.3.#.4.#.X.                      ",
"                                                  f.w.i.j.F.T._.'.]._.!.H.&.(         | +.3.b.n.#.#.+. .                        ",
"                                                V.A.c.h.s.            a.s.f.g.          2.#.@.+.+.X.                            ",
"                                                j.~./.I.z.            l.S.I.U.k.                                                ",
"                                                E _ q.l.              j.D.x.q./                                                 ",
"                                                K h f a                 W K f i                                                 ",
"                                              l d Z f x                 p U h i                                                 ",
"                                              a d d p                   e d d p                                                 ",
"                                                q 2 t                     q q 9                                                 ",
"                                                                                                                                ",
"                                                                                                                                ",
"                                                                                                                                "
};
