/* XPM */
static char *a9o0g_mvm89[] = {
/* columns rows colors chars-per-pixel */
"64 64 250 2 ",
"   c None",
".  c #3B1010",
"X  c #2E3829",
"o  c #481312",
"O  c #571715",
"+  c #4D0D10",
"@  c #7B0F13",
"#  c #750E12",
"$  c #661414",
"%  c #7C1214",
"&  c #781817",
"*  c #720E0F",
"=  c #513119",
"-  c #7B211A",
";  c #7B2818",
":  c #773F1F",
">  c #713126",
",  c #592120",
"<  c #37471D",
"1  c #324A34",
"2  c #19403D",
"3  c #5A441D",
"4  c #4C562F",
"5  c #775A26",
"6  c #7B5935",
"7  c #6F4B2D",
"8  c #5A692C",
"9  c #4B6026",
"0  c #62722E",
"q  c #6B7C2D",
"w  c #677732",
"e  c #726836",
"r  c #184546",
"t  c #085866",
"y  c #08677A",
"u  c #176574",
"i  c #38726D",
"p  c #2B4B42",
"a  c #73704D",
"s  c #506E5C",
"d  c #831316",
"f  c #8B1417",
"g  c #851519",
"h  c #8C1518",
"j  c #831C18",
"k  c #8C1A1A",
"l  c #881B16",
"z  c #93151A",
"x  c #9B161B",
"c  c #941B1C",
"v  c #9B1A1C",
"b  c #901A10",
"n  c #80150D",
"m  c #A31A1D",
"M  c #A5181D",
"N  c #B31A1F",
"B  c #87241A",
"V  c #94221B",
"C  c #9C241D",
"Z  c #952B1B",
"A  c #95311D",
"S  c #A3261D",
"D  c #A32C1D",
"F  c #AB281F",
"G  c #B6351F",
"H  c #A4311E",
"J  c #9B1A21",
"K  c #B71C21",
"L  c #A81D21",
"P  c #872826",
"I  c #9B2A24",
"U  c #883C24",
"Y  c #983727",
"T  c #8D3634",
"R  c #A92721",
"E  c #B72523",
"W  c #AD3422",
"Q  c #A53926",
"!  c #BA3A22",
"~  c #B63823",
"^  c #AB3C31",
"/  c #CF1B21",
"(  c #C93025",
")  c #904D2F",
"_  c #A9462C",
"`  c #B8472A",
"'  c #A84939",
"]  c #B94A33",
"[  c #A75534",
"{  c #B45138",
"}  c #AA502B",
"|  c #86632D",
" . c #876B39",
".. c #966D34",
"X. c #A7772B",
"o. c #AC6D33",
"O. c #A8441F",
"+. c #C74523",
"@. c #D64A23",
"#. c #D75926",
"$. c #C9572E",
"%. c #E14F21",
"&. c #D3682D",
"*. c #E97226",
"=. c #945443",
"-. c #B14F42",
";. c #966745",
":. c #977847",
">. c #907450",
",. c #B06D4F",
"<. c #B87061",
"1. c #C15142",
"2. c #C66849",
"3. c #C9724F",
"4. c #E07E59",
"5. c #768734",
"6. c #768D34",
"7. c #709340",
"8. c #768D69",
"9. c #699360",
"0. c #889735",
"q. c #928836",
"w. c #8FA83A",
"e. c #8DA53A",
"r. c #92AB39",
"t. c #97A937",
"y. c #9AB239",
"u. c #A7BA36",
"i. c #A9B533",
"p. c #B48535",
"a. c #CE8D3E",
"s. c #F7842A",
"d. c #EE822D",
"f. c #ABC23A",
"g. c #B4C737",
"h. c #BCD63C",
"j. c #C2DB3D",
"k. c #C1D53C",
"l. c #D8C13A",
"z. c #FBD627",
"x. c #FDDC25",
"c. c #9E8656",
"v. c #8C8E4C",
"b. c #A38857",
"n. c #AD8C4F",
"m. c #A9B85A",
"M. c #96906B",
"N. c #A68C66",
"B. c #A9976A",
"V. c #AD9C74",
"C. c #AB9A76",
"Z. c #B99A76",
"A. c #B88D6A",
"S. c #94A96C",
"D. c #B6A67A",
"F. c #AEA76E",
"G. c #9BB242",
"H. c #D2924D",
"J. c #D6A24A",
"K. c #D3AD57",
"L. c #E7B44E",
"P. c #E8B754",
"I. c #E0AA54",
"U. c #CE8E6F",
"Y. c #D8B678",
"T. c #CEAC6E",
"R. c #E9B47C",
"E. c #E3B078",
"W. c #E6BA62",
"Q. c #B7CD4B",
"!. c #BDCB6D",
"~. c #97C144",
"^. c #C4DC42",
"/. c #C9DE46",
"(. c #CBDF58",
"). c #EECD57",
"_. c #CDE156",
"`. c #D9CB73",
"'. c #EFC973",
"]. c #D1E26B",
"[. c #FBE378",
"{. c #157688",
"}. c #0E768A",
"|. c #247E84",
" X c #09859B",
".X c #12859A",
"XX c #13808E",
"oX c #318991",
"OX c #0C94AC",
"+X c #1293AB",
"@X c #2FA4B5",
"#X c #0EA4BD",
"$X c #57918A",
"%X c #69A7A1",
"&X c #13A9C5",
"*X c #12AEC9",
"=X c #37BEDA",
"-X c #45C0D8",
";X c #B9A984",
":X c #B1AF8B",
">X c #96A497",
",X c #C5A986",
"<X c #D7A98A",
"1X c #C7B68C",
"2X c #C9BC95",
"3X c #C6BA97",
"4X c #D4BB94",
"5X c #D5B889",
"6X c #E6BA84",
"7X c #E4B897",
"8X c #E2A487",
"9X c #C4BEA3",
"0X c #DEAD93",
"qX c #85C4BD",
"wX c #CCC29C",
"eX c #D4C59D",
"rX c #D8C698",
"tX c #E9C797",
"yX c #EBC98D",
"uX c #D6CAA3",
"iX c #D5CAA7",
"pX c #DCD2AB",
"aX c #DBD3B4",
"sX c #CBC7AA",
"dX c #E8C9A6",
"fX c #EAD6AA",
"gX c #E8DAB7",
"hX c #F3DBB6",
"jX c #F3D3AA",
"kX c #ECE2BA",
"lX c #F5E6BE",
"zX c #E8E1AC",
"xX c #FAE99B",
"cX c #99D5CD",
"vX c #A9D7CC",
"bX c #B2E2D7",
"nX c #E8DDC3",
"mX c #CCE5D1",
"MX c #EBE2C2",
"NX c #ECE5C9",
"BX c #F4ECCC",
"VX c #F4E8C6",
"CX c #F5EDD2",
"ZX c #F9EED1",
"AX c #F5F1D4",
"SX c #FBF4D5",
"DX c #FCF5DB",
"FX c #FDF8DA",
"GX c #F4EFCC",
"HX c #FEF8E3",
/* pixels */
"                                                                                                                                ",
"                                                                                                                                ",
"                                                                                                                                ",
"                                                        2.                                                                      ",
"                                                      ' Z { - T                                                                 ",
"                                                      2.+.Q $ $ & P T                                                           ",
"                                                      2.` A Q Z B h % & & - P                                                   ",
"                                                    =.{ O A W ! ! ~ M v x % $ # d & & - - B & & & &                             ",
"                                                  T ' ; . ; H ! +.( m K K m % f z v M M v v c f f x Q                           ",
"                                                  ' ` o . 5 _ H ( +.l x / N d z m z m E R V S S f z v =.                        ",
"                                                  -.B . = | 3.` & l f f h v C k f @ % k c h k c m x d j                         ",
"                                                T _ o o 5 :.gX4.j % z M c C F S % @ h h f x v z M N x d P                       ",
"                                              P ^ ; . 3 | 1XHXjXQ # g J J l V C l % z v h g h f h z c V I                       ",
"                                              ' _ o , | :.NXHXHXU.k z h x M x z h z g f c C c f z x x C W _                     ",
"                                              ] - o 7  .1XHXZXlXtX_ x N N z N K x f v v f c R C % f h f c C '                   ",
"                                            -.Q + =  .c.NXSX'.P.P.a.H h x d h x h # d f v v k % f f f x M M E                   ",
"                                          =.] $ o 6 :.2XHXZXW.L.L.I.4.Z f M N z @ z x z L E F f x M h z x z x '                 ",
"                                          2.A o > :.B.CXHXHXhXyXyXrX0X$.% M K K z f M z d S R c f z % # @ c C Q                 ",
"                                          ] O , ;.c.pXNX3X:XsXCXAXaXpXU.j % z x m c h % # @ % C R c % f z c C R '               ",
"                                      ) ` - o 6 :.D.9Xa a 8.>X`.[.GXFXBX,.% d f v E E m @ f h g C S d % z z f k c               ",
"                                      Q I + > :.N.3X7 e $X@X%Xl.z.).SXHXdXY f J z f F F % % f # d d * # % x R m x I             ",
"                                      ` $ O >.b.2XM.3 8.@X=XqXL.x.x.xXDXDX8XA % @ d g k v C d h v z @ f h z L R g d T           ",
"                                    ` B o 6 b.D.nX6 6 $X*X=XcX).x.x.[.DXDXZXH.l z v x k D W D f z x g % f f f d f z P           ",
"                                n.Q D + > b.B.gXNX6  .%X*X-XvX).z.).).SXDXDXhX{ % x M h % Z C f d % C D V f v x h z h P         ",
"                                o.G $ O >.B.2XHXNX ...C.>X:XgXfX`.`.`.AXFXDXDX4X- @ d d @ % % h x x V W ! V g z x z d c -.      ",
"                                +.B o =.B.;XCXHXBX:. .,./ / U.!.!.7.8.AXDXDXDXAXA.g z z d h m f g h % j V % # % z K M h I       ",
"                              ` C + 7 B.B.5XtXgXCXb. .,./ / 3.m.Q.7.8.AXDXDXFXFXVX,.h h g g f f h d l c k % d x z f z C Q       ",
"                            } R $ , N.F.T.K.K.Y.BXV. .b.E / <.m.~.6.8.AXDXDXDXFXDXhX$.& c C c k x M h j C C g g d d d C W ^     ",
"                          Y.] & O >.D.D.T.T.T.5XCX3X>.N.Y I ,.v.6.9 M.DXDXDXDXDXDXDX7XY g C R k % h % k V V J I k d d % g g I   ",
"                          ` V O ;.D.1XnXgXfXdXgXVXsX>.V.,X,X3X:X:XC.9XDXDXCXBXNXNXAXCXU.B % k j f g d V F C j c c C l z L k P =.",
"                        ` S O 7 B.V.gXHXDXDXAXNXNXnX;XuXpXpXiXiXpXuXMXDXAXaXuXuX2XaXDXVX,.& # # g v x % l l z f k W W B ^       ",
"                      Q F $ , N.V.B.sXDXDXDXDXDXDXDXAXAXAXAXCXBXVXNXCXDXCXuXeXuX2XiXAXU.] I & # c x d d z g k c ) ) : 7         ",
"                      ~ & + , >.D.V.3XaXNXDXDXDXDXDXDXDXFXFXVXjXtXtXdXBXAXaXeXuX2XgXCX3.! Q Y - J K c - c Y ;.>.B.N. .6         ",
"                      [ > 7 7 >.B.H.W.n.iXHXDXDXDXDXDXDXDXAXtXR.R.R.E.gXDXCXaXiXNXAXCX2.~ B - ) > J ^ >.>.Z.;X1X2X1Xn.n.        ",
"                              K.L.L.L.J.rXDXDXDXDXDXDXFXDXAXtXR.R.R.E.hXFXAXiXwXVXBXMXU.{ Y U :.:.;.Z.,X1X2X2X2X2XT.o.,.        ",
"                              K.L.L.L.J.rXFXFXDXDXDXFXFXSXAXhXtXyXtXdXVXSXSXVXMXBXpXuXeX4X:.| B.V.D.2X2X2X2X2X2X1X2.}           ",
"                              T.J.I.I.Y.hXFXDXDXDXDXSXSXBXpXpXuXpXSXMXiXkXSXSXSXAXpXeXuXeX:.| B.;X1X2X2X2X2X2X2X1Xo.}           ",
"                                ` ` ] U.ZXFXDXDXFXDXSXFXVXuXeXeXeXSXBXMXVXSXSXSXSXpX2X5XT.....B.;X1X3X>Xc.N.2X2X2X-.B           ",
"                                ! G G ' nXVXgXgXMXSXSXSXAXVXgXgXVXFXFXSXSXSXSXSXSXBXgXW.J.X.X.b.;X1X>X|.4 3 B.2X2X{ P           ",
"                                U.3.,.<XMXuXeXeX2XVXSXSXSXFXFXCXaX3XsXNXSXSXSXSXSXSXlXP.I.X.X.n.;XT.S..Xi 3 >.2XT.o...          ",
"          ].].].(.(.(.!.S.v.    uXeX2XeXMXeXeXeX1XgXgXgXSXFXaX>.4 r u oXqXAXSXSXSXZXfXI.a.o...b.D.K.;X%Xs 5 >.2XK.X.n.          ",
"          (.^.j.j.j./.g.0.w v.    eX4XrXVXgXpXuXwXgXgXgXSXgXe X t t }.+XXX%XAXSXSX7X] ` A & - N.D.F.Z.-.' 5 c.2XK.o.            ",
"        (.^.j././.j.j.f.r.6.0 5.  6X6X6XyXhXSXaXwXwXMXFXAXM.X t y y +X&X X.XvXFXFX8XG ! V * & N.D.v.:.E [ | N.wX<.P             ",
"      ].^.j.j.j.j.h.f.y.r.6.0 8 v.R.R.R.R.E.VXBXkXMXCXFXgX7 X y }.{.u {.{.{.%XAXSX<X] _ B & ) V.V.5.:.R ;. .V.wX,.P             ",
"      /.j.j.j.^.j.h.u.r.w.5.0 8 4 T.6XR.R.Y.VXSXSXSXSXFX3X= 2 y .X X{..X}.}.oXmXkXeX1X,X..) c.C.D.v.D.<X4XV.;X1X:.=.            ",
"    (.j.j.j.j.j.j.^.u.r.6.0 0 9 < ;.3.3.7XkXSXSXSXSXSXFX:X= r y +X XOX*XOX X+XbXgXeXeXrX:.| c.C.;XpXgXfXuXwX2Xb.5  .            ",
"  ].(.j.j.j._.^.j.f.r.w.q 0 0 9 < U ! W <.ZXSXSXSXBXkXZX;X= r y +X XOX*X+X X#XvXBXrXW.K.X.X.b.C.;XeXwX2X2X2X2Xb.| :.            ",
"  (.j././.j.j.^.h.u.r.e.5.q w 8 < U ! ! ^ gXGXlXVXVXgXBX;X3 r i oX XOX*X.X X#XcXFXjXP.L.p.X.c.V.B.D.1X2X2X2X2XT.p.[ =.;.        ",
"  (.j.j.j.j.j.j.j.f.r.r.w.6.0 8 < : ! ! ' tX'.P.P.Y.VXSX;X3 p i $X{.OX*X.X X&XcXSXtXJ.J.o...b.c.q.q.D.2X2X2X2XY.o.Q D C B       ",
"  _.^.j.j.h.h.j.Q.y.w.r.0.0 0 9 < 4 A.U.,XfXP.L.L.J.kXFX1X7 p i oX XOX&X.X X&XvXhX1.` _ & ; N.b.v.n.,.Z.2X2X,X,.Q S c g P       ",
"  Q.h.h.h.h.u.g.u.r.r.w.5.q w 9 < a wXuX1XrX'.W.W.Y.VXFX2X5 1 y +X X.X+X}. X&XbXdX` ! W # U B.V.D.D.A.Z.T.,.] ~ Q B - T         ",
"m.y.y.r.r.y.r.y.r.r.r.0.6.u.t.0.q w M.eX2X5XtX6XhXBXSXFXuX5 1 t OX.Xu u u u {.vXhX{ ! H - ;.B.D.;X1XZ.,._ ~ W V j )             ",
"Q.r.w.w.e.w.w.w.r.r.r.0.f.j.^.k.i.0.v.2X2X4XtX6XlXFXSXFXgX .4 t +X X.X+X}. X+XmXSX6XH.o.X.b.B.V.B.,.Q S Z B & )                 ",
"  G.w.w.6.e.w.w.r.w.y.g.j.j.j.k.g.t.0.v.U.<X7XtXjXhXlXVXgX;.) 6 a a 9.$Xi oX@XmXSX'.L.J.X.c.>.[ Y S S b % P                     ",
"    0.6.q 5.5.q 5.q 0.j.j.j.j.j.g.i.0.8 | #.#.#.#.&.&.2.3.{ *.*.s.s.s.d.*.&.3.gXSX'.L.a.X.) Q H S c n - )                       ",
"      7.w 0 8 8 8 8 t.^.j./.j.j.g.t.0.8 Y +.+.@.@.@.@.+.#.#.*.*.s.s.s.s.*.*.#.3.U.H.&.&.$.+.+.! I P >                           ",
"            w 0 8 8 y./.j.j.j.j.g.i.0.8 ) ^ ^ W W W C C W ~ ` $.$.#.#.#.&.&.@.@.@.%.%.#.#.#.G I                                 ",
"                    Q.j.j.^.j.h.i.i.0.0                 U.<XdXdX7XU.-.W W D F G G G ! ! D C P                                   ",
"                      k.j.k.g.u.i.i.5.w               zXkXkXVXVXVXGXtXo.[ [ [ [ } } _ _ T                                       ",
"                      Q.g.u.i.t.0.5.0                         zX                                                                ",
"                          m.v.5.w a                                                                                             ",
"                                                                                                                                ",
"                                                                                                                                ",
"                                                                                                                                "
};
