/* XPM */
static char *awpeh_hli4b[] = {
/* columns rows colors chars-per-pixel */
"64 64 224 2 ",
"   c None",
".  c #784D3A",
"X  c #744D33",
"o  c #7F5443",
"O  c #CB3B24",
"+  c #C83D27",
"@  c #D03C25",
"#  c #80553F",
"$  c #B94634",
"%  c #CB422C",
"&  c #C7492D",
"*  c #D8432B",
"=  c #CC512F",
"-  c #CD4933",
";  c #C64933",
":  c #D34A35",
">  c #DB4C35",
",  c #D64D38",
"<  c #C85331",
"1  c #DC523C",
"2  c #D6553E",
"3  c #E44E37",
"4  c #E4533C",
"5  c #EC553D",
"6  c #F2553C",
"7  c #F5583F",
"8  c #CD6539",
"9  c #D9683E",
"0  c #867748",
"q  c #8B6E51",
"w  c #BD7D62",
"e  c #CC5A49",
"r  c #C65847",
"t  c #DC5642",
"y  c #D55846",
"u  c #DC5A45",
"i  c #D35D4B",
"p  c #DA5D4A",
"a  c #D25744",
"s  c #C25F50",
"d  c #E25641",
"f  c #EA5740",
"g  c #E45944",
"h  c #ED5B43",
"j  c #E35E4A",
"k  c #EC5F4A",
"l  c #F45C44",
"z  c #FB5E45",
"x  c #F25F48",
"c  c #F95F48",
"v  c #D66549",
"b  c #C97048",
"n  c #D47D45",
"m  c #D67847",
"M  c #CB695A",
"N  c #DC6553",
"B  c #D76654",
"V  c #DB7551",
"C  c #C46C4C",
"Z  c #E4614D",
"A  c #EB624C",
"S  c #E56748",
"D  c #FD6047",
"F  c #F3624B",
"G  c #FD6048",
"H  c #E4764C",
"J  c #E56551",
"K  c #E56854",
"L  c #E76853",
"P  c #E47758",
"I  c #F36650",
"U  c #D87A69",
"Y  c #E57562",
"T  c #7FB245",
"R  c #BD945A",
"E  c #BC8859",
"W  c #A68B77",
"Q  c #A4BA79",
"!  c #A8A67C",
"~  c #8D8B53",
"^  c #D5834B",
"/  c #D48D4E",
"(  c #DC8854",
")  c #C8975A",
"_  c #DC9C5D",
"`  c #DB9654",
"'  c #CF914F",
"]  c #DBA946",
"[  c #D8A859",
"{  c #CBA153",
"}  c #E2A55C",
"|  c #E4B655",
" . c #EABD5B",
".. c #E6B757",
"X. c #CB846B",
"o. c #CE9A67",
"O. c #D69965",
"+. c #C98678",
"@. c #D58275",
"#. c #D88F6F",
"$. c #E58D73",
"%. c #D5A867",
"&. c #DEB367",
"*. c #CCA975",
"=. c #D5A978",
"-. c #D9B67B",
";. c #E9AA68",
":. c #E3B564",
">. c #E6B966",
",. c #EABC66",
"<. c #EBBE69",
"1. c #E3BA6C",
"2. c #F0BE69",
"3. c #E0A678",
"4. c #E7B975",
"5. c #F0B57E",
"6. c #8FD459",
"7. c #98CF68",
"8. c #ADE47E",
"9. c #EEC05D",
"0. c #EEC06A",
"q. c #F4C56C",
"w. c #F7C86E",
"e. c #FACA6F",
"r. c #EAC177",
"t. c #FBCC71",
"y. c #FACF79",
"u. c #F4C775",
"i. c #FCD17D",
"p. c #B59586",
"a. c #B28D80",
"s. c #BAAE94",
"d. c #D18D83",
"f. c #C19A8B",
"g. c #D79585",
"h. c #DC9F92",
"j. c #E39384",
"k. c #E39D89",
"l. c #EB9D91",
"z. c #D9A888",
"x. c #DAB68B",
"c. c #CBAB9A",
"v. c #D5A899",
"b. c #D9B49B",
"n. c #E3A58B",
"m. c #E1BC8A",
"M. c #ECA193",
"N. c #E7A798",
"B. c #F4A79A",
"V. c #E5B79C",
"C. c #DCBAA8",
"Z. c #DAB8B3",
"A. c #DAADA5",
"S. c #FAAEA1",
"D. c #E4B6A8",
"F. c #F6B8AA",
"G. c #E5BCB6",
"H. c #ECAFA1",
"J. c #B2CE8B",
"K. c #B4D490",
"L. c #AFE384",
"P. c #DFC48C",
"I. c #DCC293",
"U. c #C9D99D",
"Y. c #EAC585",
"T. c #E6C587",
"R. c #FCD283",
"E. c #FBD68B",
"W. c #FAD48A",
"Q. c #E9CC96",
"!. c #EED29A",
"~. c #F3D393",
"^. c #FCD994",
"/. c #FDDD9B",
"(. c #F2D69B",
"). c #C9EA9A",
"_. c #DAC2A6",
"`. c #D4D3B2",
"'. c #E5C8A7",
"]. c #FCDFA2",
"[. c #F5D8A3",
"{. c #E3C5B3",
"}. c #E9CAB7",
"|. c #F6CAB8",
" X c #EDD1BD",
".X c #E1D1B3",
"XX c #F4D4BA",
"oX c #F1CDAD",
"OX c #FEE1A5",
"+X c #FEE1A4",
"@X c #FEE1A6",
"#X c #FEE1A6",
"$X c #FDE0A3",
"%X c #FDE3AA",
"&X c #FDE6B6",
"*X c #DCD3C2",
"=X c #DFCAC0",
"-X c #E6C9C5",
";X c #EDDCC5",
":X c #ECDECB",
">X c #E8D6C4",
",X c #F4D4C2",
"<X c #FDD5C3",
"1X c #F3DECA",
"2X c #FCDCCA",
"3X c #F8D8C6",
"4X c #E6D8D5",
"5X c #F9E0CD",
"6X c #F5E5D2",
"7X c #FAE7D3",
"8X c #FBEAD5",
"9X c #FDEDD9",
"0X c #F5E8D8",
"qX c #FBF2DB",
"wX c #E9E4CE",
"eX c #F5E9E7",
"rX c #F5EAE9",
"tX c #F7EBEA",
"yX c #FEF6E2",
"uX c #F9F0EF",
"iX c #F5F2F1",
"pX c #FAF5F5",
"aX c #FFFFFF",
"sX c #EDE4E2",
/* pixels */
"                                                                                                                                ",
"                                                                                                                                ",
"                                                                                                                                ",
"                                                                                                                                ",
"                                                            L F F A                                                             ",
"                                                        I F c l 5 h x A                                                         ",
"                                                    F F f : @ O O O % 4 A                                                       ",
"                                                  F h - & 8 m n n m 8 < ; h K                                                   ",
"                                                F S n _ 2.w.t.t.t.t.w.2.[ b u L                                                 ",
"                                              F S :.y.t.t.e.t.t.t.t.t.t.t.w._ S Z                                               ",
"                                            x H 4././.^.E.i.y.t.t.t.t.t.y.R.i.[ S Z                                             ",
"                                          k H r.$X@X@X@X@X@X]./././././.].@X].W._ S J                                           ",
"                                        A S r.$X@X@X@X~.^.@X@X@X@X@X].@X@X@X@X@XE.( x N                                         ",
"                                      J S 4.$X@X@X@XY.r./.@X@X@X].Q.[.].@X@X@X@X@X~.V x B                                       ",
"                                      k _ $X@X@X[.(.1.R.@X@X@X@X!.r.].@X@X@X@X%X%X@XY.S F                                       ",
"                                    k P (.$X$X(.Q.=.0.^.@X@X%X%Xm.;.^.@X@X&X@X%X%X@X/.O.x A                                     ",
"                                  Z S 4.$X^.$XQ.m.=.w.^.@X@X%X%Xx.3.i.$X].].@X@X].@X/.4.V c N                                   ",
"                                  k ` W./.^.[.P.z.3.t./.@X$X@X].z.n.<.^.^.~.@X@X/.$X@Xr.O.x F                                   ",
"                                Z V >.^.E./.!.-.M.3.t./.].^.@X(.n.B.3.i.R.Y.@X@X^./.@XY.&.S D N                                 ",
"                              N S } ,.R.i./.T.=.F.3.t././.R.@X!.V.F.k.<.t.T.@X@XE.R.W.4.,.( z A                                 ",
"                              k V q.:.e.t.y.%.n.2Xn.w.^.E.R.$X!.{.<XB.=.w.4.^.E.y.q.w.,.,./ h F N                               ",
"                            K 4 ^ w.:.e.t.q.o.|.9XV.<.t.t.t.i.u..X9X|.M.&.:.w.t.w.>.w.<.,./ 1 D A                               ",
"                            A - n t.:.w.w.<.=.;X:XC.%.q.t.w.t.w.'.9X6X{.g.) :.t.q.>.t.,.,.^ : D F                               ",
"                            k @ m t.:.w.<.>.b.6X6X6Xb.&.w.q.t.w.Q.8X:X6X1Xb.%.,.0.,.t.>.0.9 % F D K                             ",
"                          N h O 8 w.:.q.<.&.,X9X>Xc.v.m.u.5.5.q.Y.7X8X>X1X8Xm.:.:.q.t.&.,.= + c D A                             ",
"                          L 5 O = 2.<.:.4.-.;Xa.X X . c.XXoXXXoXoX1Xf.. o W _.*.%.w.w.:.} O + l D x                             ",
"                          F h + O ` u._.:Xx.p.. 0 0 0 p.6X9X9X9X9X>XW q o X q _.b.Q.1.,.m @ + x D F v                           ",
"                          F D : O < x.,X}.b.a.! *XQ T Q 9X9X9X9X9X;XK.`.~ 0 q p.;X1Xx.:.= O : F D z p                           ",
"                          c D c % O X.F.k.h.}.K.L.8.6.J.9X9X2X3X9X;X7.L.7.6.s.f.v.N.'.^ O % x D z 7 t                           ",
"                          6 l z l % ; N.B.B.{.wXU.).U.;X8X9X<X|.8X6XU.).).J.*Xh.M.B.z.< : c z l 6 6 i                           ",
"                          5 6 6 l l - r h.oX{.1X3X X,X<X7X8X8X7X8X9X5X.X.X,X{.|.F.z.b 4 l 7 6 6 6 t                             ",
"                          p 5 6 6 6 5 > ; O.4.oX2X<X<X2X8X1X X X5X9X5X<X<XXXz.x.X.v 5 6 6 6 6 5 t                               ",
"                            e 4 6 6 6 6 4 < ' -.}.2X5X8X9X9X8X8X9X9X8X2XXXz.^ 9 5 6 6 6 6 5 t                                   ",
"                                y 4 5 6 6 6 1 m %.x.{.;X6X9X9X9X9X6X,XV.U 4 5 6 5 5 4 t a                                       ",
"                                      y t d 5 4 1 b r K U g.v.v.g.U r a t d t a r                                               ",
"                                                  r : c 4 ; $ : l l > f i                                                       ",
"                                                N h 1 : 3 , s > : 1 5 z c A                                                     ",
"                                              A F D 5 4 4 i d.1 4 1 z D D D F N                                                 ",
"                                            F D D z 1 x 1 U {.2 c 1 c D D D D D k e                                             ",
"                                        Z F D D D c 4 , , h.eXB 1 1 h D D D D D D F p                                           ",
"                                      y g D D D z z D h d Z.iX@.5 z D D z z D D D D c r                                         ",
"                                  B F z 4 1 h l 7 z c c > s Z.+.h D D D z 7 z D D c 2                                           ",
"                                c.K z D c d $ % f F z l + U sX-Xp z D D D 7 5 5 4 ,                                             ",
"                            M.}. X@.F A B   e + % h l 3 r -XtXeXg.6 D D l : ; 4 5 l j                                           ",
"                              D.,Xv.        x 3 @ % 4 : v.tXeXtX-Xp 3 : + O ; i c D F M                                         ",
"                                          k D c 5 * O M 0XeXeXeXtXd.O * > 5 l M M A F d.v.                                      ",
"                                        u z D D D z 1 {.pXuXuXuXpX>XA z z D F u     X.C.C.o.                                    ",
"                                        h D D D D z $.pXaXaXaXaXaXpX$.z D D F h     R c.  ) [ o.;._                             ",
"                                      u l D D D D F G.aXaXaXaXaXaXaXN.z D D D z a R         *.%.x._ ;.                          ",
"                                      f z G D D z P rXaXaXaXaXaXaXaX-XF D D D z d E   *X:X:X;X%.I.'.'                           ",
"                                        x D D D z j.aXaXaXaXaXaXaXaX4XL c D D z 5 w *XyXyXyXqX-.{ *.)                           ",
"                                          F F D l G.aXaXaXaXaXaXaXaXrXY D D D z 4 +.qXyXyXyX;X[ ] ] ..                          ",
"                                            B J j 4XaXaXaXaXaXaXaXaXiXU z D F k C .XyX8XqXyXT.] | 9.9.                          ",
"                                              l.j.A.-XsXiXpXaXaXaXaXiX@.h J       *.=.I.8X6X1. .9.9...                          ",
"                                              F.S.B.M.      4X4X4XG.D.g.j.g.      [ |  .Y.T.,. ...[                             ",
"                                            {.8X2X|.H.            M.B.S.F.N.        &. ...| | [                                 ",
"                                            K j.D. X              C.2X5X1XC.                                                    ",
"                                            x z x N               f.n.$.Y N                                                     ",
"                                          N c D z p                 h z z j                                                     ",
"                                          j l z h                   g z z g                                                     ",
"                                          y d 5 u                   p l l d                                                     ",
"                                                                      i                                                         ",
"                                                                                                                                ",
"                                                                                                                                "
};
