/* XPM */
static char *result[] = {
/* columns rows colors chars-per-pixel */
"64 64 50 1 ",
"  c #C0D470",
". c #BFD36F",
"X c #BED36F",
"o c #BAD06D",
"O c #BED26F",
"+ c #C1D470",
"@ c #AFC968",
"# c #AEC868",
"$ c #BBD16D",
"% c #BBD06D",
"& c #B5CD6A",
"* c #ADC767",
"= c #ADC867",
"- c #B5CD6B",
"; c #B4CC6A",
": c #B8CF6C",
"> c #A9C565",
", c #B9CF6C",
"< c #BFD36E",
"1 c #C2D573",
"2 c #C8D97B",
"3 c #C7D97B",
"4 c #C1D572",
"5 c #D8E393",
"6 c #D7E392",
"7 c #C6D879",
"8 c #DAE596",
"9 c #CFDD86",
"0 c #C7D87A",
"q c #CFDE87",
"w c #BED36D",
"e c #C2D572",
"r c #CFDE86",
"t c #DAE597",
"y c #C7D87B",
"u c #BED36E",
"i c #CADA7F",
"p c #E0E89E",
"a c #DFE89E",
"s c #C9DA7E",
"d c #BED26D",
"f c #BDD26D",
"g c #DFE89D",
"h c #C1D471",
"j c #CADA7E",
"k c #D6E291",
"l c #D7E391",
"z c #C1D472",
"x c #C6D87A",
"c c white",
/* pixels */
"                                                                ",
"                                                                ",
"                                                                ",
"                     ..    ..                  ..        ..     ",
"                     ..    ..                  ..        ..     ",
"                   ..  XooO                      OooXXooO       ",
"                   .. +o@#o                      o#@$$@#o       ",
"                     X%&*@o                      o@=--=@o       ",
"                     o@=;oX                      Xo;**;oX       ",
"     ..    ..        :>>,+ ..                  .. +o@@o+ ..     ",
"     ..    ..        :>>:+ ..                  ..  XooX  ..     ",
"       OooX  ..      o@@o                        ..    ..       ",
"       o#@o+ ..      OooO                        ..    ..       ",
"       o@*&%X    ..      ..                                     ",
"       Xo;=@o    ..      ..                                     ",
"     .. +,>>:  ..  XooO                                         ",
"     .. +:>>:  .. +o@#o                                         ",
"         o@@o    X%&*@o            ..        ..                 ",
"         OooO    o@=;oX            ..        ..                 ",
"       ..    ..  :>>,+ ..            OooXXooO                   ",
"       ..    ..  :>>:+ ..            o#@$$@#o                   ",
"                 o@@o                o@=--=@o                   ",
"                 OooO                Xo;**;oX                   ",
"               ..    ..            .. +o@@o+ ..                 ",
"               ..    ..            ..  XooX  ..                 ",
"                                     ..    ..                   ",
"                                     ..    ..                   ",
"                                                                ",
"                                                                ",
"                                                                ",
"                                                                ",
"                                                                ",
"                                                                ",
"                                                                ",
"                                                                ",
"                                                     ........   ",
"                                                     .<<..<<.   ",
"                                                   ..12344321.. ",
"                                                   .<25677652<. ",
"             ....                                  .<35899853<. ",
"             .<<.                                  ..10q88q01.. ",
"           .<1321..                                  <w0550w<   ",
"           <w0552<.                                  .<1331<.   ",
"     ......e7rt53<.                                    .<<.     ",
"     .<<..<y68r01..                                    ....     ",
"   ..1231uuipasd<                                               ",
"   .<2550fdiagsw<                                               ",
"   .<35tr7hjgai<.  ....                                         ",
"   ..10r8k7sgpi<.  .<<.                                         ",
"     <dsags7l63<...1231<.              ........                 ",
"     <wsggjzx01...<2550w<              .<<..<<.                 ",
"     .<iaaiuu<.  .<35tr7e..          ..12344321..               ",
"     .<ippiuu..  ..10r86y<.          .<25677652<.               ",
"     .<3663<.      <dsapi<.          .<35899853<.               ",
"     ..1001..      <wsgai<.          ..10q88q01..               ",
"       .<<.        .<iaai<.            <w0550w<                 ",
"       ....        .<ippi<.            .<1331<.                 ",
"                   .<3663<.              .<<.                   ",
"                   ..1001..              ....                   ",
"                     .<<.                                       ",
"                     ....                                       ",
"                                                                ",
"                                                                ",
"                                                                "
};
