/* XPM */
static char *aij5x_i9zf2[] = {
/* columns rows colors chars-per-pixel */
"64 64 232 2 ",
"   c None",
".  c #744F36",
"X  c #7D663D",
"o  c #7F5544",
"O  c #7C7D40",
"+  c #B73E2C",
"@  c #AE3B28",
"#  c #C53D28",
"$  c #BD4C39",
"%  c #B74734",
"&  c #B34B34",
"*  c #B77834",
"=  c #C8412C",
"-  c #CB4E3A",
";  c #C44733",
":  c #DC4C36",
">  c #D54E39",
",  c #D74B35",
"<  c #C9563C",
"1  c #D5523E",
"2  c #DC533D",
"3  c #DC583E",
"4  c #D7452F",
"5  c #E24F38",
"6  c #E3533C",
"7  c #EB533B",
"8  c #E25C3D",
"9  c #F2553C",
"0  c #F5583F",
"q  c #8B5943",
"w  c #BB5745",
"e  c #AD5646",
"r  c #B76347",
"t  c #AC674E",
"y  c #937366",
"u  c #BA7566",
"i  c #917154",
"p  c #C45343",
"a  c #CD5544",
"s  c #C75D49",
"d  c #D45541",
"f  c #DB5A46",
"g  c #D45C4A",
"h  c #DA5B47",
"j  c #EC5B43",
"k  c #E45D48",
"l  c #EA5D45",
"z  c #F45C44",
"x  c #FA5E46",
"c  c #FC5F48",
"v  c #F65F48",
"b  c #C96B4A",
"n  c #D8654B",
"m  c #C4794C",
"M  c #D67548",
"N  c #C76A5A",
"B  c #CC7555",
"V  c #D97655",
"C  c #E56244",
"Z  c #E66749",
"A  c #FC6047",
"S  c #FD6048",
"D  c #F06347",
"F  c #E4794C",
"G  c #C87A66",
"H  c #D67A67",
"J  c #BB8638",
"K  c #C78C37",
"L  c #D5A23F",
"P  c #DCA937",
"I  c #E1AD3B",
"U  c #888749",
"Y  c #978361",
"T  c #BA9275",
"R  c #98BD6C",
"E  c #A2A072",
"W  c #C8864C",
"Q  c #DC894F",
"!  c #D9874F",
"~  c #CE8A5D",
"^  c #DC8B52",
"/  c #D78751",
"(  c #C69758",
")  c #D79857",
"_  c #CF9C4E",
"`  c #E0814D",
"'  c #D6A442",
"]  c #DAA743",
"[  c #D4A95D",
"{  c #D6A55A",
"}  c #CEA65E",
"|  c #E4B243",
" . c #E1A35D",
".. c #C78765",
"X. c #D78A67",
"o. c #CB9467",
"O. c #D89669",
"+. c #C88C77",
"@. c #DB8D7C",
"#. c #CC977A",
"$. c #DA967A",
"%. c #E38A63",
"&. c #EB946B",
"*. c #EA9368",
"=. c #F5996D",
"-. c #F5996C",
";. c #F38E7F",
":. c #E59B75",
">. c #E99C78",
",. c #F69D72",
"<. c #D4A464",
"1. c #D7A869",
"2. c #DCB469",
"3. c #DBA67B",
"4. c #D6A178",
"5. c #DAB573",
"6. c #DDB873",
"7. c #CAA77E",
"8. c #E5AC63",
"9. c #E5B665",
"0. c #E3B56C",
"q. c #EABC6A",
"w. c #E7B966",
"e. c #EDA17C",
"r. c #E7A277",
"t. c #F3A27B",
"y. c #F8A77F",
"u. c #E4BE78",
"i. c #85CE4E",
"p. c #8CC85A",
"a. c #A6CD7B",
"s. c #ADE27A",
"d. c #F2C56C",
"f. c #F6C86E",
"g. c #F8CA6F",
"h. c #FBCD71",
"j. c #F7CA75",
"k. c #FCD07B",
"l. c #ECC06E",
"z. c #BA9285",
"x. c #BF9D90",
"c. c #B7A890",
"v. c #BEADA0",
"b. c #C79985",
"n. c #D69986",
"m. c #E29C85",
"M. c #EF9788",
"N. c #CDA883",
"B. c #DDA389",
"V. c #DCAD9D",
"C. c #D8A795",
"Z. c #CEB195",
"A. c #E4A484",
"S. c #EBA381",
"D. c #E2A58B",
"F. c #E5AA8F",
"G. c #ECAA8C",
"H. c #F3AD8B",
"J. c #F8AE8B",
"K. c #F8AA84",
"L. c #FAB18E",
"P. c #F3B08F",
"I. c #E7A997",
"U. c #F3AC9A",
"Y. c #E8B39E",
"T. c #F4B293",
"R. c #FCB695",
"E. c #FDB897",
"W. c #FDB999",
"Q. c #F6B69A",
"!. c #E8B287",
"~. c #CCB4A5",
"^. c #DBB4A5",
"/. c #D6B5A6",
"(. c #D8BAB1",
"). c #D1B4AE",
"_. c #E5BCAB",
"`. c #E8B9AA",
"'. c #F4B9A7",
"]. c #E0BEB5",
"[. c #EFAEA1",
"{. c #B8CE96",
"}. c #BDE88D",
"|. c #DDC291",
" X c #ECC58A",
".X c #FCD385",
"XX c #FCD68C",
"oX c #FCD98F",
"OX c #FDDA94",
"+X c #FDDD9B",
"@X c #F7D592",
"#X c #EFCA88",
"$X c #C3ED92",
"%X c #C9D4A8",
"&X c #D5D5A9",
"*X c #DBC2B3",
"=X c #DCC4BB",
"-X c #DDC8BB",
";X c #EAC2AB",
":X c #FBDEA1",
">X c #E8C8B6",
",X c #F1C7B6",
"<X c #E7D2BD",
"1X c #F0D3BE",
"2X c #FEE1A5",
"3X c #FEE2A9",
"4X c #FEE4B2",
"5X c #D6C8C5",
"6X c #DFD5D3",
"7X c #DEDECC",
"8X c #E2CCC3",
"9X c #E4CCC8",
"0X c #E5D2CA",
"qX c #ECDAC7",
"wX c #FED5C3",
"eX c #F3D9C6",
"rX c #F4DDCA",
"tX c #FCDDCB",
"yX c #F9D7C5",
"uX c #E5D9D6",
"iX c #F9E1CE",
"pX c #F5E5D1",
"aX c #FBE5D2",
"sX c #FCEAD6",
"dX c #FDEDD9",
"fX c #F4E7D8",
"gX c #FEF0DB",
"hX c #ECE2CC",
"jX c #F0EAE6",
"kX c #FBFAFA",
"lX c #F9F6F6",
"zX c #F5F1EE",
/* pixels */
"                                                                                                                                ",
"                                                                                                                                ",
"                                                                                                                                ",
"                                                                                                                                ",
"                                                          g h h s                                                               ",
"                                                      k v c c S A z 1 $ p                                                       ",
"                                                  g j j C Z C j z S S v 2 > f                                                   ",
"                                                g n ! 8.q.d.q. .M j c S S 6 7 j g                                               ",
"                                              s X. X+X+XOXOX.Xk.f.) C c S S x c A f                                             ",
"                                            t 3.:X2X2X2X2X2X2X+X.Xh.) j S S S S S S k                                           ",
"                                            !.2X2X2X2X2X2X2X2X2X2XOXd.M c S S S S S S k                                         ",
"                                          |.2X2X2X2X2X2X2X2X2X2X2X2XoX) z S S S S S S S k                                       ",
"                                        |.2X2X2X2X2X2X2X2X2X2X2X2X2X2Xq.C S S S S S S S v g                                     ",
"                                      T :X3X4X2X2X2X3X2X2X2X2X3X3X2X2X#XM x S S S S S S S D                                     ",
"                                      N.2X3X3X2X2X2X2X2X2X2X2X2X2X:X2XOX/ v S S S S S S S v g                                   ",
"                                       X2X2X2X2XXX:X2X2X2X2X+XXX2X+X:XOX .z S S S S S S S S k                                   ",
"                                    b  X2X2X2XOXd.XX2X2X2X2XOXd.@X+XOXOX9.C S S S S S S S S v                                   ",
"                                    < 8.XX+X2XXX9.j.:X2X2X:XOXd.u.XXk.h.d.Z c S S S S S S S S f                                 ",
"                                    < { h.h..Xk.w.<..X+XOX#Xu.h.w.d.h.h.d.F c c z x S S S A x j                                 ",
"                                    M 2.9.l.d.w.0.<.1.f.h.d.( o.<.<.f.h.g.F 9 9 9 x S S A z v z 1                               ",
"                                  w ! d.o.1.q.w.A.U.U.A.1.<.<.n.m.n.1.d.h.` 9 9 0 S S A v z 9 9 7                               ",
"                                  p ^ d.n.u ..!.;XtXtXyX,XV.;XaXwX'.D.4.q.Q 7 9 x S A v v z 9 9 9 1                             ",
"                                  - Q q.i . q _.dXdXdXdX~.. o Z.dXaXwX'.D.B 7 x S A v x x 9 9 9 9 7                             ",
"                                  > M [ c.E U *XdXdXdXdX~.Y X . ~.dXdXsXyX@.z S S x x S x 9 9 9 9 9 d                           ",
"                                  2 6 t a.p.R fXdXdXdXdX7X{.U O y hXdXdXdXm.z S S S S x 9 9 9 9 9 9 6                           ",
"                                  6 4 r a.s.%XdXsXdXdXdX{.i.i.p.v.~.aXdXdXD.j S S c z 9 9 9 9 9 9 9 9 p                         ",
"                                  6 # H <X&XhXyXaXdXdXdX%X}.$X{.jX*XaXdXdXI.j c x 9 9 9 9 9 5 7 9 9 9 1                         ",
"                                  6 # @.tXaXdXaXsXdXdXaXeX&X&XrXdXdXdXdXdXY.7 9 9 9 9 9 9 7 : 9 9 9 9 6                         ",
"                                  2 # C.tXaXdXeX`.rXdXtXwXwXwXwXtXdXdXdXdXV.7 9 9 9 9 9 7 , 7 9 9 9 9 6                         ",
"                                  a = n.sXdXdXU.;.I.aXiXwXwXwXwXiXdXdXdXdXn.7 9 9 9 9 : , 7 9 9 9 9 9 6                         ",
"                                I.V.N w <XdXsXI.M.;.;XsXtXwXwXtXsXdXdXdXaXH 9 9 7 5 , 5 9 9 9 9 9 9 9 a                         ",
"                                ;X,X`.N G qXdXrX`.`.eXdXsXaXaXsXdXdXdXtXI.f 9 7 : 5 7 9 9 9 9 9 9 7 a                           ",
"                                ;XU.`.x.( 5./.pXgXgXdXdXdXdXdXgXdXrX;X3.m 7 9 9 9 9 9 9 9 7 7 6 1                               ",
"                                `.;X/.#.1.}   T ~.>XeXrXrXqX<X^.N.5.9.^ 8 9 9 9 9 9 7 6 d a                                     ",
"                                  b.$.1.{ ~       $ w e w w $ $ { 9.Q 7 9 9 9 9 7 2                                             ",
"                                    ( ( ~ -.%.s $ % @ + , : < ) 9.W > 6 6 2 d a                                                 ",
"                                  2.d.( *.=.%.d - % % - > 8 W 2./ 2 g                                                           ",
"                                  1.2.    %.Z j - $ w ; b  .( M z c x z h                                                       ",
"                                          n x S 6 B V r w.h.^ v S S S S S l g                                                   ",
"                                          j z 2 b &.&.b m ^ D S S S c x c S S j p                                               ",
"                                          p -   O.J.K.&.b j S S S S S z 0 x S x 6 p                                             ",
"                                                G.W.W.L.>.n 8 8 x S S x 9 7 > = # %                                             ",
"                                                T.W.W.'.F.o.K m V k j 3 = + &                                                   ",
"                                                T.W.Q.aX=X4.{ H.K.*.M * t                                                       ",
"                                                >.t.S.1X~.O.) e.e.:...J +.                                                      ",
"                                              z.V.C.n.b.z.T ( b.b.#.o.K *.*...                                                  ",
"                                            B.P.G.D.A.$.$.o._ $.:.e.:.* X.-.&...                                                ",
"                                          D.W.W.W.W.W.G./.8X<X0X9X8X8X-X-X#.,.-.X.                                              ",
"                                        F.W.W.W.W.W.W.A.7.zXkXkXkXlXkXkXjX#.J.,.=.X.                                            ",
"                                      F.W.W.W.W.W.W.W.P._ 2.6.5.5.5.5.2.{ O.W.K.=.=.X.                                          ",
"                                    A.W.W.W.W.W.W.W.W.Q.<.| | I I I I I P O.W.R.,.=.&.b.                                        ",
"                                  X.R.W.W.W.E.W.W.W.W.W.3.' ] L L L L L L 4.W.E.,.&.].6X                                        ",
"                                b.F.Q.E.W.E.K.E.W.W.W.G.:.r.r.:.O.~ O.:.r.T.W.L.:./.5X(.  u                                     ",
"                                5X6X0X_.T.y.t.W.W.T.m.>.J.W.W.W.W.H.>.S.E.W.L.>.^.].;XpXpX@.                                    ",
"                                    ^.9X(.m.t.W.P.G.P.E.W.W.W.W.W.W.W.J.H.G.Y.0X_.U.tXsXpXn.s                                   ",
"                                  _.yX[.I.V.*X`.H.R.E.W.W.W.W.W.E.E.L.G.Y.-XuX_.I.U.1X<X^.N p                                   ",
"                              g N <XdXyXU.n.5XuX=XC.D.S.e.e.e.e.S.D._.0XuX                                                      ",
"                                g C.fXeX            ).uX0X=X=X8X5X5X5X5X                                                        ",
"                                  a +.                                                                                          ",
"                                                                                                                                ",
"                                                                                                                                ",
"                                                                                                                                ",
"                                                                                                                                ",
"                                                                                                                                "
};
