/* XPM */
static char *result[] = {
/* columns rows colors chars-per-pixel */
"64 64 205 2 ",
"   c #9C2A18",
".  c #BA331F",
"X  c #A93724",
"o  c #B73C28",
"O  c #C53722",
"+  c #CB3B24",
"@  c #CC3E29",
"#  c #C63A25",
"$  c #BA402D",
"%  c #BE4330",
"&  c #C5422D",
"*  c #CB432E",
"=  c #CC4531",
"-  c #CD4830",
";  c #D14731",
":  c #D54933",
">  c #DC4B35",
",  c #C85638",
"<  c #D5533C",
"1  c #DD523B",
"2  c #D85739",
"3  c #E24D37",
"4  c #E44F38",
"5  c #E4533D",
"6  c #EC523A",
"7  c #F3553D",
"8  c #C86A3D",
"9  c #905C4C",
"0  c #865C4A",
"q  c #826D42",
"w  c #907C5A",
"e  c #896A55",
"r  c #B16443",
"t  c #DD5B47",
"y  c #EE5A42",
"u  c #E85943",
"i  c #F55B43",
"p  c #FB5D45",
"a  c #CB6A47",
"s  c #DE6945",
"d  c #D7794B",
"f  c #D86C58",
"g  c #CD7D53",
"h  c #ED6447",
"j  c #E66948",
"k  c #F16146",
"l  c #F36349",
"z  c #FF6149",
"x  c #E06E58",
"c  c #E77C55",
"v  c #D6796A",
"b  c #EB7963",
"n  c #7FCF49",
"m  c #BD915C",
"M  c #B99A4A",
"N  c #88A553",
"B  c #BE8E67",
"V  c #AC897B",
"C  c #C38E4B",
"Z  c #D38F4F",
"A  c #CA8757",
"S  c #DD8151",
"D  c #D99457",
"F  c #C19645",
"G  c #E38C5B",
"H  c #E58357",
"J  c #E39D58",
"K  c #E59E58",
"L  c #D2A14D",
"P  c #C9A557",
"I  c #E0AA4B",
"U  c #E6A659",
"Y  c #EEB95D",
"T  c #EAB758",
"R  c #F1BF5A",
"E  c #D69767",
"W  c #CA9673",
"Q  c #DB9F72",
"!  c #E38D7E",
"~  c #F48D7C",
"^  c #F2907F",
"/  c #D4A164",
"(  c #DDA273",
")  c #DBB37B",
"_  c #EBAF62",
"`  c #EEA56B",
"'  c #E5A868",
"]  c #F7AB6A",
"[  c #F1A666",
"{  c #ECB464",
"}  c #ECBD6B",
"|  c #E9B66B",
" . c #E4A275",
".. c #E8AA78",
"X. c #F8AF70",
"o. c #E8B67B",
"O. c #F6B57C",
"+. c #F6B175",
"@. c #84C050",
"#. c #8BD35A",
"$. c #A6CE7E",
"%. c #B2E87F",
"&. c #F4C35C",
"*. c #F4C46B",
"=. c #FBCB6E",
"-. c #FCCE72",
";. c #F7CC7C",
":. c #FCD07C",
">. c #CF9C8D",
",. c #DD9485",
"<. c #D99D8A",
"1. c #C19D90",
"2. c #EA9685",
"3. c #E99887",
"4. c #F39687",
"5. c #CAA28D",
"6. c #DDA983",
"7. c #D9A280",
"8. c #DAB685",
"9. c #DFBC88",
"0. c #DBA99B",
"q. c #D8A996",
"w. c #CEB09E",
"e. c #DAB49A",
"r. c #DEB99D",
"t. c #E5AD81",
"y. c #E9A18D",
"u. c #E6A887",
"i. c #ECB484",
"p. c #E5B28C",
"a. c #E9B68D",
"s. c #E4BB8D",
"d. c #EEBB86",
"f. c #F6BA85",
"g. c #F5BD8B",
"h. c #ECAD9C",
"j. c #F4A89A",
"k. c #EEBD93",
"l. c #E6B19C",
"z. c #E8B799",
"x. c #F0BF95",
"c. c #DBB5A7",
"v. c #CFBEB5",
"b. c #CFB4AA",
"n. c #E8ADA4",
"m. c #F4ADA0",
"M. c #E3B8A0",
"N. c #E8BBA9",
"B. c #F7B6A6",
"V. c #B0CF89",
"C. c #B8E886",
"Z. c #D0DB9F",
"A. c #C2C389",
"S. c #EDC38F",
"D. c #F2CA85",
"F. c #FCD384",
"G. c #FDD68B",
"H. c #FED88B",
"J. c #EBC798",
"K. c #F5C295",
"L. c #F6C59A",
"P. c #F0CC98",
"I. c #FEDA94",
"U. c #FEDC9B",
"Y. c #F5D397",
"T. c #DCC2AA",
"R. c #D3DDA9",
"E. c #DCC5B4",
"W. c #C9D7AB",
"Q. c #E4C7A4",
"!. c #ECC4AC",
"~. c #E6C2A7",
"^. c #F3C2AF",
"/. c #FDDEA2",
"(. c #E3C5B4",
"). c #ECCDBA",
"_. c #E8C9B9",
"`. c #F7C6B5",
"'. c #ECD1BE",
"]. c #E8D8BE",
"[. c #F3D1BD",
"{. c #FFE1A5",
"}. c #FFE6B7",
"|. c #DAC7C1",
" X c #DED1D0",
".X c #EBD5C1",
"XX c #EED8C5",
"oX c #E6D6C9",
"OX c #F3D5C4",
"+X c #FDD5C2",
"@X c #FEDAC6",
"#X c #F4DDCB",
"$X c #FBDCC9",
"%X c #F3D8C5",
"&X c #E9DFDB",
"*X c #F6E1CD",
"=X c #FCE1CE",
"-X c #FBE6D3",
";X c #FCEAD6",
":X c #FDEDD9",
">X c #F6E6D3",
",X c #E9E6DA",
"<X c #F3EBE8",
"1X c #FAF7F7",
"2X c None",
/* pixels */
"2X2X2X2X2X2X2X2X2X2X2X2X2X2X2X2X2X2X2X2X2X2X2X2X2X2X2X2X2X2X2X2X2X2X2X2X2X2X2X2X2X2X2X2X2X2X2X2X2X2X2X2X2X2X2X2X2X2X2X2X2X2X2X2X",
"2X2X2X2X2X2X2X2X2X2X2X2X2X2X2X2X2X2X2X2X2X2X2X2X2X2X2X2X2X2X2X2X2X2X2X2X2X2X2X2X2X2X2X2X2X2X2X2X2X2X2X2X2X2X2X2X2X2X2X2X2X2X2X2X",
"2X2X2X2X2X2X2X2X2X2X2X2X2X2X2X2X2X2X2X2X2X2X2X2X2X2X2X2X2X2X2X2X2X2X2X2X2X2X2X2X2X2X2X2X2X2X2X2X2X2X2X2X2X2X2X2X2X2X2X2X2X2X2X2X",
"2X2X2X2X2X2X2X2X2X2X2X2X2X2X2X2X2X2X2X2X2X2X2X2X2X2X2X2X2X2X2X2X2X2X2X2X2X2X2X2X2X2X2X2X2X2X2X2X2X2X2X2X2X2X2X2X2X2X2X2X2X2X2X2X",
"2X2X2X2X2X2X2X2X2X2X2X2X2X2X2X2X2X2X2X2X2X2X2X2X2X2X2X2X2X2X2X2X2X2X2X2X2X2X2X2X2X2X2X2X2X2X2X2X2X2X2X2X2X2X2X2X2X2X2X2X2X2X2X2X",
"2X2X2X2X2X2X2X2X2X2X2X2X2X2X2X2X2X2X2X2X2X2X2X2X2X2X2X2X2X2X2X2X2X2X2X2X2X2X2X2X2X2X2X2X2X2X2X2X2X2X2X2X2X2X2X2X2X2X2X2X2X2X2X2X",
"2X2X2X2X2X2X2X2X2X2X2X2X2X2X2X2X2X2X2X2X2X2X2X2X2X2X2X2X1 % 2X2X2X2X2X2X2X2X2X2X2X2X2X2X2X2X2X2X2X2X2X2X2X2X2X2X2X2X2X2X2X2X2X2X",
"2X2X2X2X2X2X2X2X2X2X2X2X2X2X2X2X2X2X2X2X2X2X2X2X2X2X2Xy i u y p p p p z p i i u 1 2X2X2X2X2X2X2X2X2X2X2X2X2X2X2X2X2X2X2X2X2X2X2X",
"2X2X2X2X2X2X2X2X2X2X2X2X2X2X2X2X2X2X2X2X2X2X2X2X2X2X5 3 # < 5 i z z z z z z z z z l 5 & 2X2X2X2X2X2X2X2X2X2X2X2X2X2X2X2X2X2X2X2X",
"2X2X2X2X2X2X2X2X2X2X2X2X2X2X2X2X2X2X2X2X2X2X2X2X2X* 3 8 D J s 5 z z z z z z z z z z p 6 : 2X2X2X2X2X2X2X2X2X2X2X2X2X2X2X2X2X2X2X",
"2X2X2X2X2X2X2X2X2X2X2X2X2X2X2X2X2X2X2X2X2X2X2X2X2X2 U *.-.-.J < p z z z z z z z z z z p 7 > 2X2X2X2X2X2X2X2X2X2X2X2X2X2X2X2X2X2X",
"2X2X2X2X2X2X2X2X2X2X2X2X2X2X2X2X2X2X2X2X2X2X2X2Xa D.H.:.-.=.*.d 1 z z z z z z z z z z z p 7 * 2X2X2X2X2X2X2X2X2X2X2X2X2X2X2X2X2X",
"2X2X2X2X2X2X2X2X2X2X2X2X2X2X2X2X2X2X2X2X2X2X2X2XS.{.{.{.U.F.-.{ , p z z z z z z z z z z z z 6 2X2X2X2X2X2X2X2X2X2X2X2X2X2X2X2X2X",
"2X2X2X2X2X2X2X2X2X2X2X2X2X2X2X2X2X2X2X2X2X2X2XY.{.{././.{./.I.-.Z t z z z z z z z z z z z z l = 2X2X2X2X2X2X2X2X2X2X2X2X2X2X2X2X",
"2X2X2X2X2X2X2X2X2X2X2X2X2X2X2X2X2X2X2X2X2X2XP.}.{.Y.p.p././.U.I.*.a p z z z z z z z z z z z z > 2X2X2X2X2X2X2X2X2X2X2X2X2X2X2X2X",
"2X2X2X2X2X2X2X2X2X2X2X2X2X2X2X2X2X2X2X2X2X8./.{.D.( j.j.p./.U.U.G.D i z z z z z z z z z z z p 6 2X2X2X2X2X2X2X2X2X2X2X2X2X2X2X2X",
"2X2X2X2X2X2X2X2X2X2X2X2X2X2X2X2X2X2X2X2X2XP.U.;. .h.$X@Xh.k.U.G.I.} j z z z z z z z z z z p z 7 * 2X2X2X2X2X2X2X2X2X2X2X2X2X2X2X",
"2X2X2X2X2X2X2X2X2X2X2X2X2X2X2X2X2X2X2X2X2XY.:.' n.$X:X:X=Xl.P.I.F.-.d p z z z z z z z p 7 p i 7 > 2X2X2X2X2X2X2X2X2X2X2X2X2X2X2X",
"2X2X2X2X2X2X2X2X2X2X2X2X2X2X2X2X2X2X2X2X2X=.| <.(..XXX>X:X$Xs.U.:.-.K p z z z z z z p 7 p p 7 7 6 2X2X2X2X2X2X2X2X2X2X2X2X2X2X2X",
"2X2X2X2X2X2X2X2X2X2X2X2X2X2X2X2X2X2X2X2X2X*.Q ).;X:X;X:X:X:X~.D.F.=.{ k z z z z p i 7 p i 7 7 7 7 ; 2X2X2X2X2X2X2X2X2X2X2X2X2X2X",
"2X2X2X2X2X2X2X2X2X2X2X2X2X2X2X2X2X2X2X2X2X' !.:X:X:X:X:X;X:X*Xo.:.=.{ l z z z z z p p i 7 7 7 7 7 > 2X2X2X2X2X2X2X2X2X2X2X2X2X2X",
"2X2X2X2X2X2X2X2X2X2X2X2X2X2X2X2X2X2X2X2X2XB *X*XN..X>X:X:X:X;X9.=.=.{ k z z z z z z p 7 7 7 7 7 7 6 2X2X2X2X2X2X2X2X2X2X2X2X2X2X",
"2X2X2X2X2X2X2X2X2X2X2X2X2X2X2X2X2X2X2X2X2X2X*X>.9 0 V .X:X:X:XJ.=.-.Y i z z z z p 7 7 7 7 7 7 7 7 7 & 2X2X2X2X2X2X2X2X2X2X2X2X2X",
"2X2X2X2X2X2X2X2X2X2X2X2X2X2X2X2X2X2X2X2X2X2XOX1.w q e V XX;X:XQ.*.-.U y z z p p 7 7 7 7 7 7 7 7 7 7 : 2X2X2X2X2X2X2X2X2X2X2X2X2X",
"2X2X2X2X2X2X2X2X2X2X2X2X2X2X2X2X2X2X2X2X2X2X#XoXW.N N v.(.;X:XQ.*.-.J p p p i 7 7 7 7 7 7 7 7 7 7 7 3 2X2X2X2X2X2X2X2X2X2X2X2X2X",
"2X2X2X2X2X2X2X2X2X2X2X2X2X2X2X2X2X2X2X2X2X2X*XV.#.n @.,X-X;X-X8.} | d i i i 7 7 7 7 7 7 7 7 7 7 7 7 6 2X2X2X2X2X2X2X2X2X2X2X2X2X",
"2X2X2X2X2X2X2X2X2X2X2X2X2X2X2X2X2X2X2X2X2X2XXXW.C.%.V.<X@X@X#Xz.u.y.f 6 7 7 7 7 7 7 7 7 7 7 7 7 7 7 6 2X2X2X2X2X2X2X2X2X2X2X2X2X",
"2X2X2X2X2X2X2X2X2X2X2X2X2X2X2X2X2X2X2X2X2X2X_.>XR.Z.].@X@X[.$X=X$X^.t 7 7 7 7 7 7 7 7 7 7 7 7 7 7 7 7 ; 2X2X2X2X2X2X2X2X2X2X2X2X",
"2X2X2X2X2X2X2X2X2X2X2X2X2X2X2X2X2X2X2X2X2X2X#X;X>X$X[.[.+X+X@X;X:XN.4 7 7 7 7 7 7 7 7 6 6 7 7 7 7 7 7 > 2X2X2X2X2X2X2X2X2X2X2X2X",
"2X2X2X2X2X2X2X2X2X2X2X2X2X2X2X2X2X2X2X2X2X2X>X:X-X%Xh.2.^.+X=X;X;X2.6 7 7 7 7 7 7 7 7 3 6 7 7 7 7 7 7 : 2X2X2X2X2X2X2X2X2X2X2X2X",
"2X2X2X2X2X2X2X2X2X2X2X2X2X2X2X2X2X2X2X2X2X2X>X:X!.2.4.~ B.=X;X:X*Xf 7 7 7 7 7 7 7 6 > 6 7 7 7 7 7 7 4 2X2X2X2X2X2X2X2X2X2X2X2X2X",
"2X2X2X2X2X2X2X2X2X2X2X2X2X2X2X2X2X2X2X2X2X2XT.;XOX2.4.3.#X:X:X;Xn.u 7 7 7 7 7 7 6 > 6 7 7 7 7 7 7 3 2X2X2X2X2X2X2X2X2X2X2X2X2X2X",
"2X2X2X2X2X2X2X2X2X2X2X2X2X2X2X2X2X2X2X2X2X2X2Xw..X%X[.=X;X=X+XB.f 6 7 7 7 7 6 3 4 6 7 7 7 7 7 6 ; 2X2X2X2X2X2X2X2X2X2X2X2X2X2X2X",
"2X2X2X2X2X2X2X2X2X2X2X2X2X2X2X2X2X2X2X2X2X2X2X2X2X2X0.5.,.,.! v u 7 7 7 3 > 3 6 7 7 7 7 6 4 ; 2X2X2X2X2X2X2X2X2X2X2X2X2X2X2X2X2X",
"2X2X2X2X2X2X2X2X2X2X2X2X2X2X2X2X2X2X2X2X2X2X2X2X2X2X2XX $ o X o = : : > 3 6 6 6 6 3 > * 2X2X2X2X2X2X2X2X2X2X2X2X2X2X2X2X2X2X2X2X",
"2X2X2X2X2X2X2X2X2X2X2X2X2X2X2X2X2X2X2X2X2X2X2X2X2X2X2X5 , : 3 > : : : : * o 2X2X2X2X2X2X2X2X2X2X2X2X2X2X2X2X2X2X2X2X2X2X2X2X2X2X",
"2X2X2X2X2X2X2X2X2X2X2X2X2X2X2X2X2X2X2X2X2X2X2X2X2X2X5 l d 7 7 7 7 7 7 6 4 = 2X2X2X2X2X2X2X2X2X2X2X2X2X2X2X2X2X2X2X2X2X2X2X2X2X2X",
"2X2X2X2X2X2X2X2X2X2X2X2X2X2X2X2X2X2X2X2X2X2X2X2X2X2Xi j [ j z z p i p p p p 5 2X2X2X2X2X2X2X2X2X2X2X2X2X2X2X2X2X2X2X2X2X2X2X2X2X",
"2X2X2X2X2X2X2X2X2X2X2X2X2X2X2X2X2X2X2X2X2X2X2X2X2X2Xl H +.H p z z z z z z z p 5 2X2X2X2X2X2X2X2X2X2X2X2X2X2X2X2X2X2X2X2X2X2X2X2X",
"2X2X2X2X2X2X2X2X2X2X2X2X2X2X2X2X2X2X2X2X2X2X2X2X2X1 y ..K.` h z z z z z z i i i 1 2X2X2X2X2X2X2X2X2X2X2X2X2X2X2X2X2X2X2X2X2X2X2X",
"2X2X2X2X2X2X2X2X2X2X2X2X2X2X2X2X2X2X2X2X2X2X2X2X2X= , p.L.g.H k p z k j ; + + @ * o 2X2X2X2X2X2X2X2X2X2X2X2X2X2X2X2X2X2X2X2X2X2X",
"2X2X2X2X2X2X2X2X2X2X2X2X2X2X2X2X2X2X2X2X2X2X2X2X2X2Xr k.L.L.d.c l s D ` , O O + + O   2X2X2X2X2X2X2X2X2X2X2X2X2X2X2X2X2X2X2X2X2X",
"2X2X2X2X2X2X2X2X2X2X2X2X2X2X2X2X2X2X2X2X2X2X2X2X2X2XA k.K.K.L.p.Q ( / i.g 2X2X2X2X. 2X2X2X2X2X2X2X2X2X2X2X2X2X2X2X2X2X2X2X2X2X2X",
"2X2X2X2X2X2X2X2X2X2X2X2X2X2X2X2X2X2X2X2X2X2X2X2X2X2XE c.r.z.q.e.M.t./ D A 2X2X2X2X2X2X2X2X2X2X2X2X2X2X2X2X2X2X2X2X2X2X2X2X2X2X2X",
"2X2X2X2X2X2X2X2X2X2X2X2X2X2X2X2X2X2X2X2X2X2X2X2X2X2X( i.t.o.( E <.q.w.P r.&XE.M 2X2X2X2X2X2X2X2X2X2X2X2X2X2X2X2X2X2X2X2X2X2X2X2X",
"2X2X2X2X2X2X2X2X2X2X2X2X2X2X2X2X2X2X2X2X2X2X2X2X2XW x.L.K.+.` P A.1X<X) c.1X<Xm 2X2X2X2X2X2X2X2X2X2X2X2X2X2X2X2X2X2X2X2X2X2X2X2X",
"2X2X2X2X2X2X2X2X2X2X2X2X2X2X2X2X2X2X2X2X2X2X2X2X2Xa.L.L.L.K...F M oXoXP L 9.9.C 2X2X2X2X2X2X2X2X2X2X2X2X2X2X2X2X2X2X2X2X2X2X2X2X",
"2X2X2X2X2X2X2X2X2X2X2X2X2X2X2X2X2X2X2X2X2X2X2X2X6.L.L.L.L.L.L.' I o.*.&.&.&.I J G 2X2X2X2X2X2X2X2X2X2X2X2X2X2X2X2X2X2X2X2X2X2X2X",
"2X2X2X2X2X2X2X2X2X2X2X2X2X2X2X2X2X2X2X2X2X2X2X2Xx.L.L.L.L.L.L.K.| { Y Y U K U ] ] D 2X2X2X2X2X2X2X2X2X2X2X2X2X2X2X2X2X2X2X2X2X2X",
"2X2X2X2X2X2X2X2X2X2X2X2X2X2X2X2X2X2X2X2X2X2X2X8.L.L.L.L.L.L.L.L.K.a...+.+.f.f.f.X.` 5.2X2X2X2X2X2X2X2X2X2X2X2X2X2X2X2X2X2X2X2X2X",
"2X2X2X2X2X2X2X2X2X2X2X2X2X2X2X2X2X2X2X2X2X2XW L.L.K.L.L.L.L.L.L.L.L.L.L.K.L.L.L.g.t.w.2X2X2X2X2X2X2X2X2X2X2X2X2X2X2X2X2X2X2X2X2X",
"2X2X2X2X2X2X2X2X2X2X2X2X2X2X2X2X2X2X2X2X2X2XE.L.f.f.^.L.L.L.L.L.L.L.L.L.f.D.K.!.oX|.2X2X2X2X2X2X2X2X2X2X2X2X2X2X2X2X2X2X2X2X2X2X",
"2X2X2X2X2X2X2X2X2X2X2X2X2X2X2X2X2X2X2X2X2X2X Xc...O.k.x.K.L.x.f.L.L.K.K.i...M.v.2X2X2X2X2X2X2X2X2X2X2X2X2X2X2X2X2X2X2X2X2X2X2X2X",
"2X2X2X2X2X2X2X2X2X2X2X2X2X2X2X2X2X2X2X2X2X2X2X2X0.q.<.c.E.z.g.X.x.z.(.E.c.y.0.2X2X2X2X2X2X2X2X2X2X2X2X2X2X2X2X2X2X2X2X2X2X2X2X2X",
"2X2X2X2X2X2X2X2X2X2X2X2X2X2X2X2X2X2X2X2X2X2X2X'.+XB.j.j.c.b.e.6.e.|.c.m.m.`.%X2X2X2X2X2X2X2X2X2X2X2X2X2X2X2X2X2X2X2X2X2X2X2X2X2X",
"2X2X2X2X2X2X2X2X2X2X2X2X2X2X2X2X2X2X2X2X2X2Xu y.;X-X`.2.2X2X2X2X2X2X2Xh.@X:X).x 2X2X2X2X2X2X2X2X2X2X2X2X2X2X2X2X2X2X2X2X2X2X2X2X",
"2X2X2X2X2X2X2X2X2X2X2X2X2X2X2X2X2X2X2X2X* 6 p z 3.XX2X2X2X2X2X2X2X2X2X2X).OXb p 5 2X2X2X2X2X2X2X2X2X2X2X2X2X2X2X2X2X2X2X2X2X2X2X",
"2X2X2X2X2X2X2X2X2X2X2X2X2X2X2X2X2X2X2X2X2X: 6 7 t 2X2X2X2X2X2X2X2X2X2X2X2Xf i p 3 2X2X2X2X2X2X2X2X2X2X2X2X2X2X2X2X2X2X2X2X2X2X2X",
"2X2X2X2X2X2X2X2X2X2X2X2X2X2X2X2X2X2X2X2X2X2X& 2X2X2X2X2X2X2X2X2X2X2X2X2X2X2X: 6 2X2X2X2X2X2X2X2X2X2X2X2X2X2X2X2X2X2X2X2X2X2X2X2X",
"2X2X2X2X2X2X2X2X2X2X2X2X2X2X2X2X2X2X2X2X2X2X2X2X2X2X2X2X2X2X2X2X2X2X2X2X2X2X2X& 2X2X2X2X2X2X2X2X2X2X2X2X2X2X2X2X2X2X2X2X2X2X2X2X",
"2X2X2X2X2X2X2X2X2X2X2X2X2X2X2X2X2X2X2X2X2X2X2X2X2X2X2X2X2X2X2X2X2X2X2X2X2X2X2X2X2X2X2X2X2X2X2X2X2X2X2X2X2X2X2X2X2X2X2X2X2X2X2X2X",
"2X2X2X2X2X2X2X2X2X2X2X2X2X2X2X2X2X2X2X2X2X2X2X2X2X2X2X2X2X2X2X2X2X2X2X2X2X2X2X2X2X2X2X2X2X2X2X2X2X2X2X2X2X2X2X2X2X2X2X2X2X2X2X2X",
"2X2X2X2X2X2X2X2X2X2X2X2X2X2X2X2X2X2X2X2X2X2X2X2X2X2X2X2X2X2X2X2X2X2X2X2X2X2X2X2X2X2X2X2X2X2X2X2X2X2X2X2X2X2X2X2X2X2X2X2X2X2X2X2X",
"2X2X2X2X2X2X2X2X2X2X2X2X2X2X2X2X2X2X2X2X2X2X2X2X2X2X2X2X2X2X2X2X2X2X2X2X2X2X2X2X2X2X2X2X2X2X2X2X2X2X2X2X2X2X2X2X2X2X2X2X2X2X2X2X"
};
