/* XPM */
static char *ayi9p_kbtvb[] = {
/* columns rows colors chars-per-pixel */
"64 64 222 2 ",
"   c None",
".  c #705031",
"X  c #AC3928",
"o  c #B33D2B",
"O  c #C53D27",
"+  c #81523E",
"@  c #B7422E",
"#  c #B64634",
"$  c #BB5C3A",
"%  c #AE4635",
"&  c #C7422E",
"*  c #C54934",
"=  c #C94C38",
"-  c #C44C3A",
";  c #DC4C36",
":  c #D84B36",
">  c #C9553D",
",  c #D4513D",
"<  c #DB523D",
"1  c #D55E3C",
"2  c #D1452F",
"3  c #E24F39",
"4  c #E04E37",
"5  c #E4523B",
"6  c #EC533B",
"7  c #E15B3D",
"8  c #F2553C",
"9  c #F5583F",
"0  c #CB6D37",
"q  c #BE5343",
"w  c #BB5747",
"e  c #87784A",
"r  c #8F684A",
"t  c #BA6D54",
"y  c #AB694D",
"u  c #937661",
"i  c #A87B6F",
"p  c #CC5B4A",
"a  c #C75846",
"s  c #D35440",
"d  c #DE5540",
"f  c #D45E4B",
"g  c #D95B46",
"h  c #EB5C45",
"j  c #E55D48",
"k  c #ED5E48",
"l  c #E55842",
"z  c #F55C44",
"x  c #FA5E46",
"c  c #F25F48",
"v  c #FD5F48",
"b  c #C76545",
"n  c #DA694A",
"m  c #D77749",
"M  c #D97857",
"N  c #CE7652",
"B  c #E26444",
"V  c #E76947",
"C  c #FB6047",
"Z  c #FD6048",
"A  c #F16048",
"S  c #E17655",
"D  c #C87867",
"F  c #D47866",
"G  c #7AB23F",
"H  c #BE8131",
"J  c #DDAB3E",
"K  c #D6A43A",
"L  c #BF8C55",
"P  c #B78C4F",
"I  c #85A751",
"U  c #BE8564",
"Y  c #B48478",
"T  c #B7957B",
"R  c #A98675",
"E  c #98B267",
"W  c #CB8A4B",
"Q  c #C3885B",
"!  c #DC8C51",
"~  c #D48B51",
"^  c #CC9A5B",
"/  c #C39558",
"(  c #D39454",
")  c #D59D5A",
"_  c #DB9757",
"`  c #CB904D",
"'  c #E19957",
"]  c #DDAB41",
"[  c #CDA35C",
"{  c #D5A656",
"}  c #E2B145",
"|  c #E1A65D",
" . c #CA8467",
".. c #DA8864",
"X. c #C69565",
"o. c #DE9668",
"O. c #CA8975",
"+. c #DC8B79",
"@. c #CB9577",
"#. c #D29B75",
"$. c #DC9B7D",
"%. c #D7967A",
"&. c #E48C65",
"*. c #E59167",
"=. c #E99369",
"-. c #F59A6D",
";. c #F3986C",
":. c #E59A75",
">. c #E39A78",
",. c #F29C73",
"<. c #D7A766",
"1. c #DBB162",
"2. c #D7B06D",
"3. c #CBA57C",
"4. c #DBA576",
"5. c #E3AF65",
"6. c #EABB66",
"7. c #EBBD6B",
"8. c #E4B667",
"9. c #E8A27F",
"0. c #F5A47D",
"q. c #F8A47B",
"w. c #E7B272",
"e. c #90D55B",
"r. c #92CB62",
"t. c #A5E171",
"y. c #EDC16A",
"u. c #F3C46D",
"i. c #F6C96E",
"p. c #F8C96E",
"a. c #ECC172",
"s. c #EDC47E",
"d. c #FCCD72",
"f. c #F6CB7B",
"g. c #FDD27D",
"h. c #B9978A",
"j. c #B5AC8E",
"k. c #CD9A88",
"l. c #C69783",
"z. c #D39C84",
"x. c #D99987",
"c. c #EA9988",
"v. c #F19789",
"b. c #DDAA8D",
"n. c #D8A389",
"m. c #DCA992",
"M. c #D4AD9C",
"N. c #D7A594",
"B. c #D3B48C",
"V. c #E4A484",
"C. c #EBA584",
"Z. c #E8A88B",
"A. c #F5A986",
"S. c #F4AD8B",
"D. c #FAAF8B",
"F. c #F7AA85",
"G. c #FBB18E",
"H. c #E2AB93",
"J. c #E7A797",
"K. c #E4B39C",
"L. c #E7B795",
"P. c #F3B294",
"I. c #FBB494",
"U. c #F8B698",
"Y. c #FDB99A",
"T. c #F2B69B",
"R. c #F4A599",
"E. c #D9B7AA",
"W. c #D4BDB5",
"Q. c #CDAEA3",
"!. c #EBBBAA",
"~. c #E3B7A7",
"^. c #F4B5A6",
"/. c #F6BAAB",
"(. c #EFAEA1",
"). c #ACCD85",
"_. c #B7CE96",
"`. c #DAC19D",
"'. c #C5DE97",
"]. c #F3CE85",
"[. c #FCD484",
"{. c #FBD58A",
"}. c #FDDA94",
"|. c #FDDD9B",
" X c #F3D69C",
".X c #EBC893",
"XX c #C9E19D",
"oX c #C8D7A5",
"OX c #DAC2B7",
"+X c #EAC1AE",
"@X c #FBDEA1",
"#X c #E1C3B2",
"$X c #ECC3B2",
"%X c #EACCBA",
"&X c #F8C6B6",
"*X c #EBD3BE",
"=X c #E4D5B9",
"-X c #FEE1A5",
";X c #FEE2AA",
":X c #FEE4B1",
">X c #DACDCA",
",X c #D6C7C5",
"<X c #DDD4D3",
"1X c #DFD1CD",
"2X c #E4CCC5",
"3X c #EADAC2",
"4X c #E7D6C4",
"5X c #FED5C3",
"6X c #F3DDCB",
"7X c #FCDDCA",
"8X c #F7D8C4",
"9X c #E8DCD9",
"0X c #F5E2CF",
"qX c #FBE1CD",
"wX c #FCE5D2",
"eX c #FBEAD6",
"rX c #FDEDD9",
"tX c #F5E6D4",
"yX c #EFE8D3",
"uX c #F7EEE9",
"iX c #F9F7F8",
"pX c #EAE4E1",
/* pixels */
"                                                                                                                                ",
"                                                                                                                                ",
"                                                                                                                                ",
"                                                                                                                                ",
"                                                                                                                                ",
"                                                        w f j c c c j n                                                         ",
"                                                  s = < z Z Z x z z z z j                                                       ",
"                                              f l : l Z Z x l m ! ' _ m B l p                                                   ",
"                                            j x z z Z Z z n | u.d.g.[.[.s.o.n a                                                 ",
"                                        p c Z x x Z Z x n 6.d.{.|.@X-X-X-X-X.X .                                                ",
"                                      p c Z Z Z Z Z Z B | g.|.-X-X-X-X-X-X-X-X X@.                                              ",
"                                      c Z Z Z Z Z Z x m f.|.-X-X-X-X-X-X-X-X-X-X@X3.                                            ",
"                                    k Z Z Z Z Z Z Z z _ }.-X-X-X-X-X-X-X-X-X-X-X-X@XB.                                          ",
"                                  n Z Z Z Z Z Z Z v B 7.-X-X-X-X-X-X-X-X-X-X-X-X;X;X XT                                         ",
"                                  k Z Z Z Z Z Z Z x m ].-X-X-X;X-X-X-X-X;X-X-X-X:X;X-XB.                                        ",
"                                f C Z Z Z Z Z Z Z x ! {.-X|.-X|.@X-X-X-X-X-X|.-X-X-X-X.X                                        ",
"                                j Z Z Z Z Z Z Z Z z | }.|.}.@Xf.}.-X-X-X-X|.g.|.-X-X-X Xt                                       ",
"                              p x Z Z Z Z Z Z Z Z B 5.[.[.}.].y.}.-X-X-X-X{.6.{.-X-X|.s.a                                       ",
"                              d C Z Z Z Z x x Z Z V 7.d.d.g.8.p.{. X-X-X|.7.1.[.}.[.d.5.>                                       ",
"                            q z z z Z Z Z x 8 z z V u.d.d.8.8.7.<.a.g.[.a.X.7.u.d.p.i.1.m                                       ",
"                            < 9 z 8 z Z Z Z 9 8 8 V u.d.7.X.O. ./ 5.6.w.$.9.9.5.6.8.[ 7.! a                                     ",
"                          q 6 8 8 9 z x Z Z x 8 8 m i.8.#.c.^.$XL.b.m.^.&X&XL.w.2.#.$.u._ >                                     ",
"                          < 8 8 8 9 x z x Z Z z 8 m 4.V.^.&XwX0Xh.i #XeXeXrXqX+Xy + R a.' >                                     ",
"                        q 6 8 8 8 8 x Z z x Z Z z F /.5XwXrX0Xu . . T tXrXrXrX#Xr e u <.! ,                                     ",
"                        , 8 8 8 8 8 9 x C Z Z Z z +.wXrXrXrXh.. e j.4XrXrXrXrX6XE E oXP 1 <                                     ",
"                        5 8 8 8 8 8 8 9 x Z Z Z z +.eXrXrX3XR I G r._.eXrXrXrXuX_.e.r.y : 5                                     ",
"                      - 8 8 8 6 6 8 8 8 9 z x Z z x.rXrXtXQ.>X).t.t.).rXrXrXeXwX4X'.oX .O 5                                     ",
"                      , 8 8 8 8 ; 6 8 8 8 8 9 z z x.rXrXrX0XuX4XXXXX=XeXrXrXeX8XtX3X8Xx.O 5                                     ",
"                      < 8 8 8 8 5 : 8 8 8 8 8 8 6 x.rXrXrXrXqX7X*X*X5X7XrXtX6XwXrXwX7XH.O 5 a                                   ",
"                      < 8 8 8 8 8 5 : 6 8 8 8 8 6 %.rXrXrXrXqX5X5X5X5X7XrX%Xv.^.rXeXwX~.& :                                     ",
"                      s 8 8 8 8 8 8 6 : ; 6 8 8 8 F tXrXrXrXwX5X5X5X5XqX8Xc.v.R.wXrXtXO.&                                       ",
"                        d 8 8 8 8 8 8 8 3 : 4 6 8 g $XeXrXrXrXwX7X7XqXrX%Xc.c.!.eXrXN.q x.$X!.                                  ",
"                          s 5 6 8 8 8 8 8 8 6 6 8 5  .K.8XrXrXrXrXrXrXrXrX0X0XrX0X`.Q Y $X(.$XE.                                ",
"                                g d 6 6 8 8 8 8 8 8 1 ) 4.L.%X0XrXrXrXrXrXeX6XE.T 1.1.l.E./.!.                                  ",
"                                      a < 6 8 8 8 8 8 B | 7./ t D @.k.k.z.O.i     Q { <.b.M.                                    ",
"                                            s 5 6 6 6 8 7 ( 7.W * & & X X o %   ..=.^ [ Q                                       ",
"                                                      p p > ) 1.N 5 < * @ @ = s &.-.*.L 1.2.                                    ",
"                                                      f k z B ( / m > * # # = < S ;...X.y.7.                                    ",
"                                                  f k C Z Z Z k ~ i.5.$ b b , C A N                                             ",
"                                              p k C Z Z Z Z Z v V 5.1.y ..&.g z x k                                             ",
"                                            s x Z Z x z x Z Z Z Z V b M ,.q...q < d                                             ",
"                                          # 2 < z x 9 z Z Z Z x x h M q.I.Y.C.                                                  ",
"                                            # # @ & ; z x x j 1 0 N C.P.Y.Y.P.                                                  ",
"                                                    % $ b M &.:.{ #.E.8XT.Y.U.k.                                                ",
"                                                    Y P W ;.F.I.<.4.W.tXT.D.F.@.                                                ",
"                                                   .&.H U @.%.$.^ X.h.M.$.>.n.l.                                                ",
"                                                ..;.=.0 ..:.%.@.^ X.l.l.k.N.N.n.                                                ",
"                                              ..-.o.n.X.N.K.H.m.3.3.b.C.D.I.Y.Y.P.z.                                            ",
"                                          U =.-.q.#.pXiXiXuXiXiXiXiXOXn.Y.Y.Y.Y.Y.P.z.                                          ",
"                                          =.-.q.Y.#.`.=X3X3X3X*X*X=X^ V.Y.Y.Y.Y.Y.Y.U.n.                                        ",
"                                        &.-.-.F.Y.4.K J J J J ] ] } { P.Y.Y.Y.Y.Y.Y.Y.U.z.                                      ",
"                                      W.b.;.-.G.Y.4.K J J J J J } } <.Y.Y.Y.Y.Y.Y.Y.Y.Y.S. .                                    ",
"                                      ,X9Xm.;.I.Y.S.( ( ( ` ` ( ) ) $.P.Y.Y.Y.Y.G.Y.Y.Y.Y.:.                                    ",
"                                  D 4X*X~.,Xm.0.Y.Y.Y.S.>.:.S.I.U.I.0.:.Z.Y.Y.Y.q.D.Y.T.$X%XW.                                  ",
"                                  +.0XtX7X(.OX~.C.I.S.9.A.Y.Y.Y.Y.Y.Y.D.9.V.P.Y.q.,.K.2X>X                                      ",
"                                  F $X6X0X^.R.2X9X~.Z.I.Y.Y.Y.Y.Y.Y.Y.Y.Y.U.P.P.H.M.E.~.!.                                      ",
"                                a w       J.c.x.Q.>X2X~.Z.C.F.D.D.D.D.F.A.Z.K.2X<XN.R./.eX4XD f                                 ",
"                                                    ,X9X1XW.E.H.H.H.K.~.E.Q.,X>X    J.6XrX*Xf p                                 ",
"                                                            ,X<X<X>X<X<X              E.#XF a                                   ",
"                                                                                          q                                     ",
"                                                                                                                                ",
"                                                                                                                                ",
"                                                                                                                                ",
"                                                                                                                                "
};
