/* XPM */
static char *aq36f_dyz0v[] = {
/* columns rows colors chars-per-pixel */
"64 64 138 2 ",
"   c None",
".  c #5C7778",
"X  c #5E7979",
"o  c #627777",
"O  c #6A7573",
"+  c #6F7871",
"@  c #627F79",
"#  c #717971",
"$  c #8B5E5E",
"%  c #8E605E",
"&  c #90605C",
"*  c #996A5E",
"=  c #A7765B",
"-  c #AC7A5A",
";  c #895E60",
":  c #8C6364",
">  c #816865",
",  c #896B63",
"<  c #996D61",
"1  c #937461",
"2  c #9E7262",
"3  c #987961",
"4  c #A37761",
"5  c #A67A63",
"6  c #AC7F60",
"7  c #A17A6A",
"8  c #62817A",
"9  c #6A877D",
"0  c #678A7A",
"q  c #6B8C7C",
"w  c #6D957C",
"e  c #70977D",
"r  c #749B7F",
"t  c #B1825D",
"y  c #AE8163",
"u  c #B38660",
"i  c #B68963",
"p  c #B98D64",
"a  c #BA8F69",
"s  c #BC9066",
"d  c #BC936B",
"f  c #C1976C",
"g  c #C49A6C",
"h  c #6F8D80",
"j  c #718F80",
"k  c #779582",
"l  c #789782",
"z  c #779E80",
"x  c #799F81",
"c  c #7CA182",
"v  c #80A385",
"b  c #86AC87",
"n  c #88AE87",
"m  c #8AAC89",
"M  c #8EB38A",
"N  c #91B58C",
"B  c #97BB8E",
"V  c #98BC8E",
"C  c #9ABE90",
"Z  c #9FC492",
"A  c #9CC191",
"S  c #A0C391",
"D  c #A2C591",
"F  c #A0C492",
"G  c #A0C593",
"H  c #A1C593",
"J  c #A1C693",
"K  c #A2C793",
"L  c #A6C993",
"P  c #A7CA93",
"I  c #A3C894",
"U  c #A4C994",
"Y  c #A5C994",
"T  c #A5CA95",
"R  c #A5CA95",
"E  c #A6CB95",
"W  c #A8CE96",
"Q  c #A9CE96",
"!  c #A9CE97",
"~  c #A9CF97",
"^  c #AACF97",
"/  c #AAD097",
"(  c #ABD097",
")  c #ABD197",
"_  c #ACD096",
"`  c #AFD297",
"'  c #AED297",
"]  c #ABD198",
"[  c #ACD298",
"{  c #ADD298",
"}  c #ADD398",
"|  c #ADD399",
" . c #ADD499",
".. c #AED499",
"X. c #AFD499",
"o. c #AED599",
"O. c #AFD599",
"+. c #AFD498",
"@. c #AFD59A",
"#. c #AFD69A",
"$. c #B4D597",
"%. c #B5D697",
"&. c #B0D498",
"*. c #B1D498",
"=. c #B0D599",
"-. c #B1D699",
";. c #B2D699",
":. c #B2D799",
">. c #B3D799",
",. c #B0D69A",
"<. c #B1D79A",
"1. c #B2D79A",
"2. c #B3D79A",
"3. c #B3D899",
"4. c #B3D89A",
"5. c #B6D999",
"6. c #B7D999",
"7. c #B4D89A",
"8. c #B4D99A",
"9. c #B5D99A",
"0. c #BAD998",
"q. c #BADA98",
"w. c #B9DB9A",
"e. c #BADB9A",
"r. c #BADC9A",
"t. c #BBDC9A",
"y. c #BCDC99",
"u. c #BDDD9A",
"i. c #BEDD9A",
"p. c #BEDE9A",
"a. c #BFDE9A",
"s. c #BFDF9A",
"d. c #C1DF9A",
"f. c #C1E09A",
"g. c #C2E09A",
"h. c #C3E09A",
"j. c #C3E19A",
"k. c #C4E19A",
/* pixels */
"                                                                                                                                ",
"                                                                                                                                ",
"                                                X X . . . . . . . . . . . . X X X X                                             ",
"                                                9 q j j j j j j j j j j j j q q q 9                                             ",
"                                        X . . 9 c m B C C C C C C C C C C B m m m v 9 .                                         ",
"                                        9 q h x N I [ ,.8.8.8.8.8.8.,.,.8.,.P H H N k 9                                         ",
"                                X . . 9 v m B Z E ) X.4.t.s.s.s.s.t.,.,.t.s.w.$.` H N x 9 . . X                                 ",
"                                9 q h x N I [ ,.X.X.X.,.s.j.j.j.j.s.,.,.s.k.k.s.8.] I N l 9 q 9                                 ",
"                            . 9 x m B Z E ) X.X.X.X.X.,.s.j.j.j.j.s.,.,.s.k.k.s.,.[ ) H N m m v 9 .                             ",
"                            9 l N E ,.8.8.,.,.,.X.X.,.8.s.j.j.j.s.w.,.,.w.s.s.w.,.X.X.) H Z Z N l 9                             ",
"                        . 9 x N H [ w.s.s.s.s.w.,.,.w.s.d.j.j.s.8.,.X.X.,.,.,.,.X.X.X.[ ) ^ ) H N x 9 .                         ",
"                        9 k m Z ^ 8.s.j.j.j.j.s.8.8.s.j.j.d.s.w.,.[ X.X.,.,.,.,.,.,.X.X.X.X.X.^ Z m k 9                         ",
"                    X 9 v m N Z ^ 8.s.j.j.j.j.d.s.s.j.j.j.s.8.,.X.[ X.,.w.s.s.s.s.w.,.X.X.X.X.^ Z B m v 9 X                     ",
"                    . q M Z Z H ^ ,.w.s.s.s.d.j.j.j.s.s.s.w.,.[ [ X.X.,.s.j.j.j.j.s.8.,.,.,.,.` Z B V m 9 .                     ",
"                    . h B ) ^ ^ [ ,.,.,.,.8.s.j.k.s.8.,.,.,.X.X.X.X.[ ,.s.j.j.j.j.j.s.s.s.s.s.$.S B V m 9 .                     ",
"                    9 x Z ,.,.X.X.X.X.X.[ ,.w.s.s.w.,.[ [ X.X.X.X.X.X.,.w.s.s.s.s.s.j.j.j.j.k.w.L Z Z N l 9                     ",
"                X 9 v N E X.X.X.X.X.X.X.[ X.,.,.,.,.X.X.X.X.X.X.X.X.X.X.,.,.,.,.,.8.s.j.j.j.j.s.` ^ ^ H N v 9 X                 ",
"                X q m Z ^ X.X.X.X.X.X.X.X.X.X.X.X.X.X.X.X.X.X.X.X.X.X.X.X.X.X.X.X.,.w.s.s.s.s.w.,.X.X.) Z m q X                 ",
"                X q m Z ^ X.X.X.X.X.X.X.[ X.X.X.X.X.X.X.X.X.X.X.X.X.X.X.X.X.X.X.X.,.,.,.,.,.,.,.,.X.X.) Z m q X                 ",
"                X q m Z E ^ ^ ^ [ X.X.X.X.[ ^ ^ ^ ^ [ X.X.X.X.X.X.X.X.X.X.[ ^ ^ ^ ^ ^ ^ [ X.X.[ ^ ^ ^ E Z m q X                 ",
"                . q m V Z Z Z H ^ X.X.X.X.^ H Z Z H ^ X.X.X.X.X.X.X.X.X.X.^ H Z Z Z A H ^ X.X.^ H Z Z Z C m q X                 ",
"                X q m V B B B Z ^ X.X.X.X.^ Z B B Z ^ X.X.X.X.X.X.X.X.X.X.^ Z B B B B Z ^ X.X.^ Z B B N M v 9 X                 ",
"                . q m V V B B Z ^ X.X.X.X.^ Z B B Z ^ X.X.X.X.X.X.X.[ X.X.^ Z B B B B Z ^ X.X.^ Z B B m k 9                     ",
"                X q m V V B B A E ^ ^ ^ ^ E C B B C E ^ ^ ^ ^ ^ [ X.X.[ ^ E Z Z Z Z Z Z E ^ ^ E C B V m 9 .                     ",
"                X q m V V B B V C Z Z Z Z C V B B V A Z Z Z Z H ) X.X.^ H Z E ^ ^ ^ ^ E H Z Z A V B V m 9 .                     ",
"                X 9 v M B B B B B B C Z Z Z Z A V B B B B B B C E ^ ^ E C C E ^ ^ ^ ^ E C B B B B B V m k 9                     ",
"                    9 k m V V B B C E ^ ^ ^ ^ E C B B B B B B V A Z Z A V V A Z Z Z Z A V B B B B B B B M v 9 X                 ",
"                    . 9 m V V B B C E ^ ^ ^ ^ E C B B B B B B B B B B B B B B B B B B B B B B B B B B V V m q X                 ",
"                    . 9 m V V B B V C Z Z Z Z A V B B B B B B B B B B B B B B B B B B B B B B B B B B V V m q X                 ",
"                    @ q m V V B B B B B B B B B B B B V B B V B B B B B B B B B B B B B V V B B V V V B N v 9 X                 ",
"                X @ 0 z M V V V B B B B V B B B B B V V V V V V B B B B B B B B B B B V V V V V V V V N v e 8 X                 ",
"                X 8 q r b M M N B B N M M N B B B B N M M M M M B B B B B B B B B B M M M M M M M M M b r q 8 X                 ",
"                X 8 q e r x z v N N c z z c M V V M c z z z z c M V B B B B B B V M c z z x x x x x x r e q 8 X                 ",
"                X 8 q w w w w x M M z w w z M V V M z w w w w z M V B B B V V V V M z w w w w w w w w w w q 8 X                 ",
"                X 8 q w w w w c M M c w w x M V V M z w w w w z M V B B V V V V V M z w w w w w w w w w w q 8 X                 ",
"                X 8 q w w w w r b b r w w r b M M m c x x x z v N V V B N M M M M n c x x c c r e w w w w 0 8 X                 ",
"                X 8 w w w w w e r r e w w e r x x c m M M M M N B V V N c z x x z c m M M M M b r w w w 0 8                     ",
"                X 8 0 w w w w e r x c c c r e w w r b M M M M M M M M b r w w w w r b M M M M b r w w q 8 X                     ",
"                    8 0 w w w r b M M M M b r w w e r c c c c x x x x r e w w w w e r c c c c r e w w q 8 X                     ",
"                    X 8 q w w r b M M M M b r w w w w w w w w w w w w w w w w w w w w w w w w w w w w q 8 X                     ",
"                    X 8 q w w e r x c c c r e w w w w w w w w w w w w w w w w w w w w w w w w w w w w q 8 X                     ",
"                    X 8 0 w w w w w w w w w w w w w w w w w w w w w w w w w w w w w w w w w w w w w w 0 8 X                     ",
"                        8 0 w w w w w w w w w w w w w w w w w w w w w w w w w w w w w w w w w w w w 0 8                         ",
"                        X 8 0 q q w w w w w w w w w w w w w w w w w w w w w w w w w w w w q q q q 0 @ X                         ",
"                            8 8 8 0 w w w w w w w w w w w w w w w w w w w w w w w w w w 0 8 8 8 8 8                             ",
"                            X X X 8 0 q q q q q w w w q q q q q q q w q w w w q q q q 0 8 X X X X X                             ",
"                                    8 8 8 8 8 8 8 8 8 8 8 8 8 8 8 8 8 8 8 8 8 8 8 8 8 8                                         ",
"                                    X X X X X o O O + # # # # # # # # # # + O O o X X X                                         ",
"                                                > , 1 3 3 3 3 3 3 3 3 3 3 1 , >                                                 ",
"                                                & * = - - - - - - - - - - = * &                                                 ",
"                                                & * - t - - - - - - - - t - * &                                                 ",
"                                                % * y u t - - - - - - t u 6 * %                                                 ",
"                                                % * y i u u u u u u u u i 6 * %                                                 ",
"                                                $ * 6 i p p i i p p p p p y * $                                                 ",
"                                                $ * 6 p d d p p d f f f f i < $                                                 ",
"                                              : < 4 u s f f s s f g g g g s 5 < :                                               ",
"                                            ; < y s d f g f f f f g g g g f s y < ;                                             ",
"                                            ; 2 a g g g g g g g g g g g g g g a 2 ;                                             ",
"                                              7 d g g g g g g g g g g g g g g d 7                                               ",
"                                                d f f f f f f g g g f f f f f d                                                 ",
"                                                            f g g f                                                             ",
"                                                            d f f d                                                             ",
"                                                                                                                                ",
"                                                                                                                                "
};
